<svg xmlns="http://www.w3.org/2000/svg" width="100" height="106" fill="none" viewBox="0 0 100 106"><path fill="#b58f69" d="M27.952 21.243c3.716.274 3.371 7.1.958 11.398-2.396 4.308-1.222 9.858-1.041 10.986.21 1.232.513 3.871.875 3.22.767-3.815 4.294-11.056 5.686-17.212s5.724-11.704 6.468-10.918c.743.785 2.248 2.519.016 7.552-2.231 5.032-9.058 11.094-10.46 15.933-1.46 6.512-3.118 12.322-4.896 17.52 1.722-1.993 5.362-4.843 6.316-5.537 1.166-.838 2.377-5.411 3.738-7.19 1.786-2.307 4.718-5.376 6.29-3.802 1.687 1.682.88 4.862-1.094 6.956-2.208 2.357-6.843 4.522-8.675 5.142-1.615.545-5.614 4.354-7.248 6.309-4.103 11.578-8.7 20.038-12.542 26.471a124 124 0 0 0 9.035-6.495 171 171 0 0 0 11.41-9.94c7.318-6.946 14.097-14.456 20.71-22.1 3.308-3.823 6.59-7.68 9.93-11.485a251 251 0 0 1 6.258-6.925c1.599-1.93 5.156-5.22 8.947-8.773 2.844-7.666 2.798-13.79 2.63-16.552-.184-2.813.527-5.544 2.325-5.79 1.471-.209 3.447 2.487 3.118 5.474-.353 3.345-2.572 5.565-3.77 7.915-1.196 2.308-2.382 5.343-3.483 8.185a260 260 0 0 0 5.063-4.857c3.738-3.692 4.455-5.807 7.136-8.23 2.592-2.34 6.33-4.304 7.862-2.424 1.558 1.916-.926 6.459-3.391 8.257s-9.027 3.417-12.539 6.076c-3.176 2.409-8.832 6.957-13.397 10.801-.665.724-1.322 1.473-1.98 2.222a4860 4860 0 0 1 12.966-4.33c1.544-.496 7.076-4.545 10.294-5.575 3.2-1.04 6.493-.476 6.972 1.65.48 2.124-2.952 3.735-4.234 3.918s-10.18.698-12.49 1.117c-2.207.39-10.134 2.539-13.93 3.706-1.306 1.482-2.587 2.999-3.885 4.507l-9.79 11.584a373 373 0 0 1-8.76 9.97c2.886-.864 11.559-3.253 11.559-3.253s6.113-4.623 7.345-5.62c1.162-.95 3.927-6.036 5.765-7.965s4.754-3.673 5.655-2.582c.891 1.108.262 3.338-1.466 5.306-1.729 1.968-8.11 4.911-9.049 5.46-.922.558-6.764 5.244-6.764 5.244s6.932-.91 8.259-1.133c1.326-.224 5.054-2.916 8.492-3.714s7.191-.394 7.724 1.87c.636 2.628-3.816 4.698-6.52 5.315-2.72.607-7.941-.812-9.828-1.468s-5.857-.394-8.449.219c-2.202.501-10.795 2.432-13.343 3.004-3.64 3.988-7.393 7.867-11.32 11.586-3.685 3.48-7.493 6.828-11.504 9.952a113 113 0 0 1-12.555 8.58c-4.364 2.58-8.928 4.85-13.653 6.703l-1.774.675c-.6.213-1.174.461-1.798.639l-.538.181c6.535-1.02 34.677-5.52 45.228-8.22 4.876-1.222 10.651-3.43 13.113-5.734 2.479-2.294 5.145-8.069 7.459-10.695.793-.914 3.09-3.353 5.24-1.522 1.17 1 1.16 3.377-1.212 5.95-3.179 3.434-9.317 7.67-17.59 11.66 7.743 3.17 22.48-7.016 24.86-.489.623 2.534-2.487 4.432-6.884 4.478-6.527.063-9.004-2.124-17.937-2.568-1.62-.114-12.127 1.407-24.032 3.201 2.302.93 7.26 2.902 8.892 3.307 2.131.53 16.644-3.004 17.743 3.663.141 2.221-2.93 4.6-8.04 2.785-5.11-1.816-8.535-5.207-10.069-5.711-1.222-.396-7.219-2.858-9.654-3.863-10.476 1.583-21.84 3.35-29.07 4.4l-1.109.344-3.676.95c-.597.17-1.243.27-1.865.405l-1.863.363c-.57.12-1.05.159-1.107.105-.084-.046.395-.239 1.06-.372l1.847-.415c.605-.144 1.234-.254 1.841-.441l3.645-1.01 3.576-1.203c.606-.187 1.182-.436 1.774-.675l1.757-.683C.182 95.079 4.68 92.77 8.984 90.18a106 106 0 0 0 3.122-1.958c2.63-3.98 10.696-18.556 15.4-38.13.423-2.606-3.043-14.723-2.65-22.265.19-3.523 1.146-6.774 3.098-6.628z"/></svg>