<svg xmlns="http://www.w3.org/2000/svg" width="100" height="148" fill="none" viewBox="0 0 100 148"><path fill="#b58f69" d="M99.265 20.83c-.975-.442-1.928-.94-2.79-1.61-.43-.317-.793-.782-1.043-1.258-.26-.465-.487-.953-.76-1.407-.135-.215-.272-.453-.453-.6-.136-.137-.397-.069-.646-.024-.51.114-1.032.295-1.599.307-.272.011-.612-.068-.839-.261-.204-.148-.442-.284-.669-.42-.453-.26-.93-.51-1.406-.748-.952-.465-1.927-.885-2.936-1.157-.998-.318-2.03-.045-3.039.238-.998.318-1.984.749-2.732 1.44-.182.17-.363.352-.488.568-.181.294-.42.43-.657.59-.239.147-.477.271-.715.396l-.34.193-.159.102s-.01 0-.022.023l.136.691c.045.261.124.51.192.772.125.51.295 1.009.477 1.508.35.998.793 1.962 1.27 2.903.986 1.871 2.21 3.63 3.684 5.149 2.937 3.062 6.894 5.103 11.123 5.66.284.044.488.113.454.147-.034.022-.227.022-.465-.012-4.275-.431-8.357-2.45-11.36-5.534-1.509-1.531-2.779-3.312-3.788-5.206-.487-.964-.941-1.939-1.304-2.96a19 19 0 0 1-.487-1.542c-.068-.26-.148-.522-.193-.782l-.17-.874c-.023-.113.181-.215.215-.26l.181-.114.363-.193c.239-.125.465-.25.68-.385.205-.137.443-.295.534-.465.147-.25.351-.454.555-.647.84-.748 1.86-1.19 2.891-1.508a9.6 9.6 0 0 1 1.6-.352c.532-.102 1.144-.022 1.654.125 1.055.295 2.041.737 2.994 1.214.476.238.952.498 1.417.77.227.137.465.273.692.443.193.159.396.204.657.204.499 0 1.01-.17 1.542-.272.238-.034.59-.159.884.09.239.205.363.443.5.681.543.93.838 2.008 1.7 2.631.816.658 1.758 1.18 2.71 1.645.26.124.442.238.397.26-.034.023-.227-.034-.454-.136zM94.72 34.86c-1.145.237-2.335.18-3.48-.012-1.146-.204-2.268-.556-3.311-1.1-1.985-1.202-4.026-2.302-6.304-2.642a9.8 9.8 0 0 0-5.636.725c-.873.42-1.7.919-2.448 1.52l-.556.465-.147.125.102.17.884 1.395c-.34.25-.42.317-.556.43l-.396.341c-.261.227-.5.476-.737.726-.76.839-1.508 1.928-1.145 2.994.158.556.419 1.066.737 1.553.158.239.34.465.532.68.091.114.193.216.295.319l.159.147.26.215-.124.647-.09.521c-.058.34-.114.715-.103 1.021-.045.012.09.08.261.125.159.045.329.068.51.102l.522.068.26.023.465.034-.079.794-.045.6c-.023.398-.046.795-.034 1.191 0 .284.022.567.079.817-.057.136.329.181.578.272a7.6 7.6 0 0 0 1.678.204c1.134 0 2.268-.192 3.38-.499 2.221-.59 4.307-1.621 6.314-2.756.273-.147.488-.238.477-.192 0 .045-.182.17-.409.306-1.984 1.19-4.059 2.268-6.303 2.903-1.123.318-2.28.533-3.447.556-.59 0-1.18-.057-1.758-.193-.147-.034-.283-.08-.43-.125l-.261-.102c-.08 0-.069-.102-.103-.159l-.045-.124a3.5 3.5 0 0 1-.09-.896c0-.408 0-.817.034-1.214l.079-1.01-.352-.022-.544-.068a5 5 0 0 1-.544-.102 2 2 0 0 1-.295-.102c-.09-.034-.272-.193-.26-.351-.023-.42.045-.76.102-1.123l.17-.953-.25-.238a4 4 0 0 1-.317-.329 7 7 0 0 1-.567-.726 6 6 0 0 1-.794-1.667c-.204-.6-.114-1.327.17-1.883.272-.566.646-1.054 1.066-1.508.25-.26.499-.522.76-.748l.408-.352.272-.215-.68-1.09-.284-.453c.068-.079.181-.158.261-.226l.147-.125.578-.476c.772-.624 1.633-1.134 2.54-1.565a10.1 10.1 0 0 1 5.85-.715c2.336.363 4.434 1.53 6.373 2.744 1.009.534 2.097.908 3.231 1.123 1.122.216 2.29.295 3.413.09.306-.056.521-.101.51-.056-.023.034-.215.125-.476.182z"/><path fill="#b58f69" d="M94.4 39.512c-1.79 1.088-3.39 2.46-4.886 3.912a33 33 0 0 0-4.059 4.763c-1.179 1.713-2.177 3.573-2.732 5.569-.17.487-.204 1.009-.318 1.52-.079.498-.068 1.054-.102 1.508.284.94.635 1.973 1.248 2.767.578.816 1.53 1.35 2.516 1.224.25-.01.488-.056.737-.135.25-.057.477-.148.715-.261.238-.091.465-.204.68-.352l.352-.204c.113-.057.237-.17.328-.17.046.09.136.295.159.283.295.25.884.25 1.36.216a6.7 6.7 0 0 0 1.486-.318 7.2 7.2 0 0 0 2.619-1.565c.793-.692 1.565-1.395 2.256-2.166.34-.385.67-.794.93-1.224.272-.42.363-.942.499-1.452.544-2.03 1.077-4.049 1.621-6.079.068-.272.159-.465.182-.42.022.035 0 .227-.057.454-.499 2.053-.986 4.094-1.485 6.136-.125.498-.216 1.043-.5 1.52a7.8 7.8 0 0 1-.952 1.292c-.703.794-1.473 1.52-2.256 2.223a7.7 7.7 0 0 1-2.732 1.656c-.51.17-1.032.306-1.576.351a4 4 0 0 1-.828 0c-.272-.034-.578-.08-.839-.317-.09-.091-.034-.023-.045-.046l-.33.193a3.5 3.5 0 0 1-.713.363c-.25.113-.5.215-.76.284a3 3 0 0 1-.805.147c-1.123.147-2.268-.5-2.88-1.383-.669-.885-1.01-1.883-1.327-2.95.034-.589.023-1.088.102-1.632.114-.522.159-1.066.33-1.565.577-2.053 1.62-3.936 2.822-5.66 1.213-1.723 2.631-3.311 4.162-4.751 1.541-1.43 3.174-2.79 5.011-3.834.25-.136.442-.215.43-.17 0 .046-.17.16-.362.284zm-23.617.215c.544-.124 1.1-.215 1.644-.306.555-.09 1.1-.159 1.655-.215a41 41 0 0 1 1.667-.137c.555-.022 1.123-.034 1.678.023.034 0 .068.034.057.068 0 .034-.034.057-.057.057-.624.08-1.145.136-1.655.204-.567.057-1.112.125-1.656.181-.544.046-1.088.103-1.666.148a42 42 0 0 1-1.667.102c-.034 0-.068-.023-.068-.068 0-.034.023-.057.056-.068zm.262-1.554c.488-.125.986-.227 1.485-.318.5-.09.998-.158 1.497-.226a17 17 0 0 1 1.508-.137c.51-.022 1.02-.034 1.53.012.035 0 .057.034.057.068s-.022.057-.056.057c-.579.079-1.043.147-1.497.215-.51.068-.998.125-1.497.193-.499.057-.986.102-1.508.159-.499.045-1.009.09-1.508.102-.034 0-.068-.023-.068-.068 0-.034.023-.057.046-.068zm1.563-4.346c.454-.147.919-.25 1.395-.34s.941-.148 1.428-.181c.477-.035.964-.046 1.44-.012a7 7 0 0 1 1.429.238c.034 0 .045.046.034.08 0 .034-.034.045-.057.045a20 20 0 0 0-1.406-.011c-.487.022-.94.045-1.405.068-.465.034-.919.079-1.406.113-.443.045-.874.08-1.418.125-.034 0-.056-.023-.068-.057q0-.051.034-.068m1.829 15.019c.385-.238.669-.42.963-.601.34-.204.646-.397.953-.59.317-.193.612-.386.94-.601.273-.181.556-.363.942-.624.023-.011.057 0 .08.023.022.023.022.057 0 .068a5.6 5.6 0 0 1-.817.817 8 8 0 0 1-.941.657 12 12 0 0 1-1.01.545 10 10 0 0 1-1.065.42c-.023 0-.057-.012-.068-.046 0-.034 0-.057.011-.068zm-3.278-6.377c-1.338.76-2.79 1.282-4.275 1.678-.374.091-.748.182-1.133.227-.193.023-.386.045-.601 0-.227-.068-.374-.227-.51-.363-.533-.555-1.02-1.145-1.565-1.678-1.066-1.066-2.302-1.996-3.708-2.53-.34-.158-.714-.215-1.077-.328-.374-.046-.737-.147-1.11-.147l-.477-.023s-.045 0-.023.034l.046.193.351 1.678-.533-.59-.442-.453c-.204-.193-.397-.386-.6-.567a19 19 0 0 0-1.27-1.055c-1.498-1.145-3.187-2.087-5.001-2.506-.907-.216-1.848-.227-2.766-.091-.397.09-1.089.283-.896.25l.805 1.598-1.633-.192-1.27-.114a47 47 0 0 0-2.54-.136c-.419 0-.838 0-1.258.023-.204.011-.42.023-.624.056-.101.012-.204.023-.306.046-.079.011-.023 0-.045 0l.556.692c.272.317.555.635.839.941.623.635 1.28 1.259 2.03 1.69.09.057.192.102.283.147l.147.068s.193.057.283.091l.318.09s.125.023.136.057l-.125.103-.487.397-1.02.839.146.102.556.374c.374.238.76.476 1.145.703.771.443 1.576.85 2.404 1.19.816.341 1.678.624 2.54.783.215.057.43.08.657.103l.33.034h.407l.647.01h.158s.148 0 .068.046l-.238.204-.499.42-.283.227a13 13 0 0 1-1.122.794l-.295.181-.068.034s-.023-.011.215.136c.771.363 1.69.329 2.562.25 3.538-.409 6.985-1.815 10.647-1.86.454 0 .907 0 1.372.068.476.09.828.011 1.281-.102.85-.25 1.69-.601 2.517-.953a51 51 0 0 0 4.819-2.427c.42-.238.703-.43.692-.374-.012.057-.273.284-.624.488a48 48 0 0 1-4.807 2.506c-.828.374-1.656.726-2.529.998-.227.057-.442.125-.68.147-.238.046-.5 0-.703-.022a9 9 0 0 0-1.338-.057c-3.594.08-6.995 1.497-10.624 1.95-.896.08-1.86.137-2.755-.271l-.374-.239-.272-.17-.136-.09c-.08-.035.056-.046.079-.08l.533-.272.283-.17c.374-.238.737-.5 1.089-.772l.26-.203h-.294l-.34-.034c-.227-.023-.454-.046-.68-.103-.908-.17-1.78-.453-2.62-.805a25 25 0 0 1-2.449-1.202 39 39 0 0 1-1.168-.703l-.566-.374-.409-.295c-.09-.068-.226-.136-.068-.204l.261-.216 1.066-.885c.068-.056.022-.01.022-.034l-.203-.09c-.114-.045-.216-.102-.318-.159-.816-.476-1.485-1.111-2.12-1.758a17 17 0 0 1-.862-.964l-.408-.499-.238-.306-.193-.25c-.045-.079-.204-.192-.023-.192l.579-.114c.113-.022.215-.022.328-.045.216-.034.431-.046.647-.057.43-.023.861-.023 1.292-.023.862.012 1.712.069 2.563.137l1.27.125.907.101-.477-.952c-.045-.182-.374-.488 0-.488l.465-.136c.238-.057.465-.147.715-.181a7.6 7.6 0 0 1 2.913.102c1.905.442 3.617 1.429 5.137 2.597.442.34.873.703 1.28 1.077.216.182.409.386.613.578l.204.216c0-.08 0-.056-.113-.544l-.08-.363-.056-.25h.25l.668.034c.386 0 .771.114 1.157.159.374.125.76.181 1.11.352 1.452.556 2.71 1.53 3.776 2.62.544.544 1.032 1.145 1.542 1.69.136.135.261.26.397.306.159.033.352.01.533 0 .374-.046.748-.126 1.111-.205 1.474-.374 2.926-.873 4.252-1.599.42-.238.714-.43.703-.363-.023.046-.283.272-.635.477z"/><path fill="#b58f69" d="M63.687 46.814c-1.405.544-2.925.703-4.183 1.463-.306.181-.578.442-.896.657a8 8 0 0 1-.975.579q-.51.255-1.02.476l-.59.227.147.034.646.125c.465.079.919.136 1.384.147h.272c.113 0 .113 0 .34-.034l.522-.08c.01.092-.125.295-.182.443l-.533 1.111-.77 1.6 3.06-1.169c.386-.272.262.25.295.488v.465c-.022.306-.045.612-.079.919a8.5 8.5 0 0 1-.295 1.372c-.056.136-.124.34-.124.317v.034l.124-.056.67-.306a10 10 0 0 0 1.27-.715c.124-.08.147-.102.328-.25l.283-.238.069-.056s.022.056.033.08l.057.17.284.85.476 1.406-.386.045c.057-.465.136-.907.272-1.349.114-.454.386-.885.601-1.248.431-.77.783-1.587.987-2.438.226-.919.26-1.928-.216-2.733-.045-.102-.125-.193-.193-.284l-.135-.17-.103-.125s.057-.09.08-.135c.193-.307.352-.42.544-.613.374-.34.77-.635 1.168-.919 1.621-1.1 3.31-2.166 5.215-2.733.261-.056.465-.045.431 0-.023.034-.192.08-.397.136-1.836.601-3.503 1.713-5.079 2.824-.386.284-.771.59-1.122.919-.16.147-.375.374-.431.476-.08-.023.226.25.317.465.544.907.51 2.019.284 2.971-.204.896-.567 1.747-.998 2.54-.533.738-.703 1.566-.805 2.45l-.386.046-.487-1.407-.193-.555-.272.192c-.42.284-.873.534-1.315.75l-.68.317-.545.227-.657.249c.147-.26.317-.522.43-.749.17-.306.182-.385.239-.521a5 5 0 0 0 .124-.42c.08-.283.125-.578.159-.862q.051-.443.068-.884v-.454l-3.708 1.395 1.214-2.461.453-.919s.012-.034-.022-.034c-.069 0-.352.023-.522.012a10 10 0 0 1-1.429-.16l-.737-.158a14 14 0 0 1-1.111-.306c.352-.102.703-.204 1.01-.306l.589-.216c.34-.136.68-.283 1.01-.442.328-.17.645-.34.951-.544.306-.193.579-.443.919-.647 1.338-.77 2.868-.884 4.251-1.383.239-.103.386-.205.397-.17 0 .033-.124.192-.34.283z"/><path fill="#b58f69" d="M63.324 55.468c-1.61 3.788-1.995 8.233-.362 12.032.147.42.374.817.59 1.203.203.397.43.782.702 1.145l.397.544.193.261s.113.046.204.057c.408.057.862 0 1.304-.045l2.698-.375c.454-.045.907-.102 1.384-.102h.35c.205 0 .42.046.58.091.305.068.748.227.997.306-.51.125-1.202.295-1.53.42l-.738.25q-1.463.51-2.89 1.122c-.953.431-1.849.85-2.62 1.565-.828.635-1.78 1.225-2.903 1.316-.544.045-1.133-.125-1.587-.318l-1.463-.522c-.487-.181-.997-.351-1.45-.703-.443-.385-.67-.873-.92-1.327-.248-.465-.441-.907-.906-1.134-.42-.272-.953-.397-1.35-.862-.204-.283-.158-.578-.147-.839l.08-.782c.045-.5.079-1.043-.17-1.452-.273-.397-.726-.68-1.168-.941-.227-.136-.454-.25-.658-.454-.216-.215-.227-.522-.25-.771 0-.295.08-.488.102-.454.023.034.012.216.035.443.022.25.056.522.226.669.182.158.408.283.635.408.454.25.93.522 1.259.975.59 1.01-.068 2.235.283 3.017.295.34.828.499 1.281.771.227.125.477.318.635.556.16.227.284.453.409.692.25.453.487.918.85 1.213.374.284.873.454 1.36.624l1.474.51c.5.204.942.318 1.44.284.987-.08 1.883-.635 2.687-1.248.76-.703 1.77-1.213 2.699-1.622a42 42 0 0 1 2.925-1.145l.828-.272h-.023c-.113 0-.215-.011-.328 0-.443 0-.885.045-1.338.09l-2.699.364c-.453.045-.918.102-1.417.034-.114-.034-.26-.023-.42-.182l-.204-.295-.397-.567a7 7 0 0 1-.714-1.18c-.215-.407-.442-.804-.59-1.247-.804-1.95-1.1-4.082-.975-6.17a17.7 17.7 0 0 1 1.543-6.044c.124-.26.238-.43.26-.385.012.034-.045.215-.147.43z"/><path fill="#b58f69" d="M60.148 63.689c-1.055.94-2.393 1.814-3.9 1.712-1.44-.057-2.87-.272-4.286-.51-.715-.103-1.418-.284-2.11-.42a27 27 0 0 0-2.108-.329c-1.395-.125-2.891-.26-4.139.374a36.4 36.4 0 0 1-6.882 2.473c-1.19.294-2.392.521-3.628.566-1.236.034-2.494-.033-3.662-.748-.182-.102-.284-.295-.182-.454.102-.158.352-.25.42-.272.215-.079.43-.147.646-.215.42-.125.84-.25 1.259-.397.657-.238 1.326-.522 1.791-.987.476-.51.919-1.077 1.36-1.633.885-1.134 1.724-2.29 2.677-3.39.464-.568 1.077-1.033 1.7-1.396a11.3 11.3 0 0 1 1.985-.93c.69-.215 1.428-.476 2.233-.204.691.397 1.18.885 1.791 1.225.375.26.873.17 1.395.34.261.068.51.193.714.375l.544.51c.726.635 1.633 1.032 2.62.919 1.009 0 1.995.09 2.982.204.498.056.986.124 1.474.215l.181.034.26.068.137.046.068.022s-.023.034-.023.057l-.159.238-.351.51 4.989 1.293c.374.102.635.193.59.227-.046.023-.307-.023-.624-.09l-5.34-1.282.487-.726s.068-.09 0-.09l-.272-.058a22 22 0 0 0-1.463-.192c-.975-.102-1.973-.182-2.948-.17-1.02.136-2.086-.295-2.834-.975-.397-.34-.68-.704-1.145-.794-.227-.068-.454-.091-.703-.125-.239 0-.556-.114-.771-.238-.635-.363-1.213-.885-1.758-1.203-.578-.204-1.315 0-1.961.227-1.304.5-2.62 1.168-3.515 2.223-.93 1.066-1.769 2.234-2.653 3.368-.442.567-.884 1.134-1.395 1.667-.567.556-1.27.828-1.95 1.078-.42.147-.85.272-1.27.397-.215.068-.42.124-.612.204l-.113.045c.918.59 2.2.715 3.367.67 1.19-.046 2.381-.261 3.56-.545a37 37 0 0 0 6.814-2.404c.658-.352 1.429-.465 2.143-.488.726-.023 1.452.023 2.177.113.714.08 1.429.205 2.132.352.714.147 1.394.329 2.097.442 1.406.25 2.824.488 4.252.556 1.429.125 2.744-.692 3.798-1.599.284-.25.5-.442.5-.386 0 .046-.17.261-.42.488z"/><path fill="#b58f69" d="M58.619 50.797c-.885.668-1.508 1.644-2.2 2.528-.669.907-1.35 1.826-2.086 2.7a19.5 19.5 0 0 1-2.404 2.438c-.884.725-1.837 1.383-2.903 1.814-.067.034-.135.023-.135 0 0-.034.034-.08.079-.113.998-.533 1.882-1.225 2.721-1.962.84-.749 1.61-1.565 2.325-2.427.725-.862 1.417-1.758 2.12-2.642.725-.862 1.406-1.815 2.403-2.439.068-.045.125-.045.136 0 0 .034-.022.08-.068.125zM30.725 67.388c-.873.578-1.746 1.156-2.608 1.724-.125.067-.034.067.125.113l.77.227.76.226.386.114.215.068.193.057s.148.022.102.09l-.068.306v.17c.011.114.034.227.08.34.079.228.204.454.362.659.306.42.68.782 1.089 1.122.397.33.839.692 1.258.907.454.205.975.33 1.486.42 1.031.159 2.109.193 3.118-.034.51-.113.93-.351 1.383-.646l1.349-.874c1.814-1.111 3.719-2.302 5.896-2.597.147-.01.25 0 .238.046-.011.034-.102.068-.227.09-2.097.398-3.923 1.622-5.714 2.756l-1.338.896c-.43.295-.953.601-1.497.715-1.088.26-2.2.215-3.276.045-.545-.09-1.078-.215-1.6-.465-.532-.272-.906-.623-1.337-.975-.408-.363-.805-.749-1.134-1.202a2.9 2.9 0 0 1-.397-.76c-.056-.136-.068-.284-.09-.442v-.227l.022-.08c0-.023-.022-.023 0-.023l-.17-.056-.385-.125-.771-.25-.771-.249-.601-.193-.159-.045s.09-.057.136-.09l.284-.182c.94-.567 1.882-1.145 2.834-1.713.125-.079.227-.102.238-.068 0 .034-.068.114-.17.182z"/><path fill="#b58f69" d="M41.557 72.355c-.261 1.293-.522 2.63-.386 3.913.08.623.43 1.202.873 1.667l.352.362c.113.125.26.307.249.556-.023.306 0 .635.023.964a11.1 11.1 0 0 0 1.032 3.765c.283.59.657 1.123 1.065 1.622.216.25.431.477.68.68.239.25.477.33.772.386.533.08 1.11-.102 1.655-.317a8 8 0 0 0 .794-.398l.385-.226.181-.125.273-.193.351.136.25.08c.17.056.34.09.51.136.34.08.691.147 1.043.17.703.057 1.417.034 2.086-.181 1.259-.33 2.268-1.248 2.914-2.382.635-1.146.975-2.439 1.202-3.743.034-.17.09-.294.125-.272.022.023.034.148 0 .295-.16 1.327-.465 2.654-1.089 3.856-.635 1.19-1.712 2.223-3.061 2.586-.715.238-1.486.272-2.223.215a7 7 0 0 1-1.1-.17c-.18-.045-.362-.08-.544-.147l-.272-.091-.158-.057-.295.193-.397.238a8 8 0 0 1-.828.42c-.567.238-1.19.442-1.87.351-.352-.045-.76-.227-.976-.476a9 9 0 0 1-.725-.726c-.431-.521-.828-1.088-1.111-1.712a10.9 10.9 0 0 1-1.032-3.901 6 6 0 0 1 0-1.033c.034-.181-.284-.442-.499-.68-.465-.499-.828-1.134-.907-1.837-.102-1.373.204-2.688.521-3.98.046-.171.114-.296.137-.273.022.023.022.148-.012.295z"/><path fill="#b58f69" d="M57.78 81.503c.408.93.84 1.86 1.316 2.756.238.453.487.896.77 1.304.137.204.295.397.465.567.182.147.397.26.635.352.93.362 1.973.408 2.948.85.238.102.476.295.658.488.159.181.351.34.544.487.397.295.839.534 1.293.726.42.17.861.318 1.303.352.42.011.953 0 1.406.068.465.045.941.102 1.406.17l1.066.159-.487-1.225c-.216-.51-.431-1.02-.658-1.52a38 38 0 0 0-1.485-2.948c-.5-.885-1.043-1.736-1.69-2.507l-.34-.396s-.147-.103-.056-.137l.147-.113.238-.17q.323-.222.68-.408c.238-.114.5-.228.805-.25.352-.023.59.136.828.238.465.227.907.465 1.372.556.476.113.895-.023 1.35-.261.453-.215.883-.476 1.337-.726a7 7 0 0 1 .703-.351c.227-.125.59-.16.805-.182l.646-.068s.102 0 .046-.034l-1.09-.658c-.44-.25-.883-.499-1.337-.714a4 4 0 0 0-.34-.148c-.136-.045-.159-.068-.42-.125-.09-.215-.124-.328-.136-.464-.022-.136-.022-.273-.022-.397.034-1.043.238-2.042.147-3.051-.045-.998-.42-1.996-1.156-2.688-.204-.181-.329-.34-.284-.351.034 0 .193.102.374.25.783.69 1.202 1.746 1.282 2.767.113 1.031-.08 2.075-.091 3.061 0 .125 0 .25.023.363 0 .114.067.25.067.261 0 0 .216.057.318.09.125.046.25.103.363.148.476.216.918.465 1.372.715l.669.386.873.532.295.182.147.09-.159.023-.691.08-.873.102c-.488 0-.885.26-1.338.499-.442.25-.885.51-1.35.748-.238.114-.464.227-.748.295a1.9 1.9 0 0 1-.839 0c-.544-.102-1.02-.363-1.463-.578-.226-.102-.453-.216-.623-.205-.204.012-.43.103-.646.216s-.431.238-.635.374l-.068.046c-.034-.046.068.079.159.181.668.805 1.212 1.678 1.723 2.575a39 39 0 0 1 1.496 2.982c.227.51.443 1.02.658 1.531l.306.771.408 1.089-1.712-.272a56 56 0 0 0-1.383-.181c-.476-.057-.884-.057-1.406-.08-.499-.057-.952-.216-1.394-.397a7 7 0 0 1-1.361-.782 4.3 4.3 0 0 1-.59-.534 1.9 1.9 0 0 0-.555-.43c-.885-.42-1.939-.5-2.914-.885a2.6 2.6 0 0 1-.692-.408 3.3 3.3 0 0 1-.498-.624 12 12 0 0 1-.76-1.35 39 39 0 0 1-1.259-2.8c-.102-.262-.147-.454-.102-.443.034 0 .136.181.227.397z"/><path fill="#b58f69" d="M71.793 90.044a26 26 0 0 1-1.27-1.225c-.42-.42-.828-.85-1.225-1.281a64 64 0 0 1-1.179-1.316 25 25 0 0 1-1.111-1.372c-.023-.034-.023-.08.011-.09.023-.024.068-.012.091 0 .442.396.873.804 1.281 1.224s.816.85 1.213 1.282c.397.43.794.873 1.168 1.315.386.442.76.896 1.123 1.372.022.034.022.08 0 .102-.023.023-.057.012-.091 0zm-2.197-.316a24 24 0 0 1-1.372-1.237 35 35 0 0 1-1.281-1.327 24 24 0 0 1-1.19-1.417 12 12 0 0 1-1.02-1.542c-.024-.034 0-.08.022-.091s.068 0 .09.023c.443.51.817.952 1.191 1.394.408.465.805.92 1.213 1.373s.805.896 1.225 1.372c.385.442.77.873 1.213 1.383.023.034.023.08 0 .102-.023.023-.068.023-.09 0zM49.48 85.156c.137-.567.284-1.123.443-1.679.17-.567.317-1.111.487-1.656s.33-1.088.499-1.655c.17-.556.34-1.1.488-1.656 0-.034.045-.057.08-.057.033 0 .044.034.044.068-.022.59-.147 1.157-.272 1.724a28 28 0 0 1-.453 1.678c-.17.556-.352 1.1-.544 1.645a28 28 0 0 1-.635 1.622c-.012.034-.057.056-.091.034-.034-.012-.046-.046-.034-.08zm1.157.385a9 9 0 0 1 .158-.964c.08-.34.136-.635.216-.941s.158-.601.238-.93c.068-.26.148-.533.26-.93 0-.023.035-.034.08-.034.034 0 .057.023.057.034.045.34 0 .67-.034.998a9 9 0 0 1-.193.964c-.08.317-.17.624-.272.93a7 7 0 0 1-.363.907c0 .023-.045.023-.08.012-.033 0-.044-.034-.044-.046zm4.228-.587c-.023-.613-.023-1.213-.034-1.826v-3.64c0-.601 0-1.214-.034-1.815 0-.045.023-.08.056-.08.034 0 .057.023.069.057.159.601.226 1.214.272 1.826.034.613.045 1.225.045 1.838 0 .612-.034 1.224-.068 1.825-.045.613-.09 1.214-.181 1.826 0 .046-.046.068-.08.068s-.057-.034-.057-.068zm-12.436-6.327a11.3 11.3 0 0 1 1.247-2.291c.25-.363.51-.703.805-1.032s.601-.635.952-.896c.023-.023.057 0 .08.022a.055.055 0 0 1 0 .08c-.306.408-.533.726-.771 1.032-.26.363-.5.692-.749 1.043-.238.352-.476.692-.725 1.055-.227.329-.454.646-.737 1.055-.011.022-.057.022-.09 0-.024-.012-.035-.045-.035-.068zm9.41-12.805a95 95 0 0 1-1.145 3.164c-.397 1.054-.805 2.098-1.213 3.141s-.84 2.087-1.27 3.119a82 82 0 0 1-1.35 3.085c-.034.068-.079.102-.113.09-.023-.022-.034-.08 0-.136.363-1.066.748-2.12 1.134-3.164.397-1.055.805-2.098 1.224-3.141.42-1.044.84-2.076 1.27-3.119.431-1.032.873-2.064 1.338-3.085.034-.068.08-.113.114-.09.022.022.034.079 0 .136zm1.518 1.031c.034.828.011 1.667-.011 2.495a37 37 0 0 1-.182 2.495c-.08.828-.193 1.655-.363 2.472-.158.816-.351 1.633-.68 2.416-.023.056-.068.079-.09.056-.023-.011-.035-.056-.035-.102.204-.794.34-1.61.454-2.427a60 60 0 0 0 .306-2.461c.08-.816.159-1.633.238-2.472.068-.805.147-1.61.227-2.472 0-.057.034-.091.079-.091.034 0 .057.045.057.09m1.768 4.143a21 21 0 0 1 .533 2.846c.056.477.102.964.113 1.452 0 .488 0 .975-.102 1.463 0 .034-.045.057-.08.045-.033 0-.056-.034-.056-.056 0-.477-.068-.942-.114-1.418-.056-.487-.101-.953-.158-1.429-.046-.476-.102-.941-.148-1.429a30 30 0 0 1-.113-1.44q0-.051.068-.068c.034 0 .057.011.068.045zm-24.388.235c.42-.103.84-.193 1.247-.273.442-.08.84-.147 1.259-.215.42-.068.828-.125 1.258-.193.375-.057.76-.102 1.259-.17.034 0 .057.022.068.056 0 .034 0 .057-.023.069-.397.181-.816.294-1.236.396q-.63.154-1.258.239c-.42.068-.85.113-1.27.158-.43.034-.85.069-1.281.057-.034 0-.057-.034-.057-.068q0-.051.034-.068zm.647.806a65 65 0 0 0 2.075-.26 41 41 0 0 0 2.053-.364 24 24 0 0 0 2.006-.521 18 18 0 0 0 1.94-.749c.044-.022.09 0 .101.023.012.034 0 .068-.034.09-.578.409-1.224.715-1.882.976-.669.25-1.35.43-2.04.578a19 19 0 0 1-2.098.307c-.703.056-1.406.09-2.11.056-.045 0-.079-.034-.079-.068s.034-.056.08-.056zm8.515-14.154c0 .306-.023.6-.045.895-.023.318-.046.601-.057.885s-.023.567-.045.884c0 .295-.023.59-.012.885 0 .023-.034.046-.068.046s-.057 0-.068-.023a3 3 0 0 1-.215-.896 5 5 0 0 1 0-.919c.022-.306.068-.6.124-.907.069-.295.136-.59.25-.873 0-.023.045-.023.08-.023.033 0 .056.023.056.046m2.211-.758c-.08.306-.136.5-.193.692-.068.25-.136.465-.193.669-.056.215-.113.42-.181.67-.045.18-.09.373-.159.68 0 .011-.034.034-.068.034s-.056 0-.056-.023a2.4 2.4 0 0 1-.069-.748 4 4 0 0 1 .136-.726q.103-.357.273-.68c.113-.216.226-.432.385-.624 0-.012.045 0 .08 0 .022.01.045.034.045.045zm17.461 7.836c-.08.441-.136.77-.193 1.1-.068.385-.136.736-.192 1.088-.057.363-.114.703-.17 1.089-.034.317-.08.646-.125 1.1 0 .022-.034.045-.068.045s-.057-.011-.057-.034c-.09-.374-.102-.76-.102-1.145.011-.386.057-.76.125-1.135.068-.374.159-.736.272-1.1.113-.362.238-.714.397-1.054.011-.023.045-.034.08-.023.033.011.045.034.045.057zm5.1 8.708c.374.182.726.386 1.089.59.374.215.714.408 1.066.612.351.205.691.397 1.065.613a16 16 0 0 0 1.078.578c.022.011.034.045.022.08 0 .034-.034.045-.056.045-.42-.057-.817-.216-1.203-.386a9 9 0 0 1-1.1-.578c-.35-.215-.702-.43-1.042-.68a9 9 0 0 1-.975-.772c-.023-.022-.023-.056 0-.09.022-.023.045-.035.068-.023zm2.609-1.543c.33.079.658.181.975.294.318.114.635.239.953.363.317.125.624.273.93.42s.6.306.895.499c.023.011.023.045 0 .08-.01.022-.034.045-.056.033a10 10 0 0 1-.987-.295 16 16 0 0 1-.952-.374 23 23 0 0 1-.93-.42 9 9 0 0 1-.896-.487c-.022-.011-.022-.045 0-.08.012-.034.034-.045.057-.045zm-8.718 2.135c.193.703.363 1.338.533 1.973.193.658.374 1.304.578 1.95.216.647.42 1.282.68 1.906.25.623.522 1.247.85 1.837.023.045.012.09-.022.102-.023.011-.068 0-.09-.034-.443-.533-.772-1.145-1.066-1.77-.295-.623-.522-1.27-.737-1.927a20 20 0 0 1-.522-1.985 21 21 0 0 1-.34-2.03c0-.045.023-.09.057-.09q.05 0 .068.068zM51.41 60.401a14 14 0 0 1 .692-.918c.26-.306.498-.59.737-.874.249-.283.498-.555.759-.85.227-.238.465-.488.794-.828.022-.023.056-.011.079 0 .023.023.034.045.023.068-.17.352-.397.67-.624.975-.227.307-.476.601-.725.885-.261.283-.522.567-.794.84-.272.272-.556.532-.85.77-.023.012-.057 0-.08-.022-.023-.023-.023-.057-.011-.068zM65.082 44.76c-1.168.08-2.313-.09-3.458-.227a85 85 0 0 1-3.413-.521c-1.145-.193-2.256-.375-3.412-.602-1.146-.305-2.2-.725-3.288-1.122l-6.43-2.518c-2.142-.805-4.274-1.758-6.485-2.29-.147-.023-.26-.069-.238-.103.012-.034.125-.034.25-.022 2.29.419 4.422 1.315 6.599 2.086 2.154.828 4.297 1.645 6.44 2.473 1.077.397 2.154.828 3.23 1.134 1.1.226 2.257.43 3.38.646 1.134.204 2.256.408 3.401.59 1.134.17 2.28.374 3.413.351.147-.01.272 0 .26.046 0 .034-.113.068-.249.09z"/><path fill="#b58f69" d="M54.822 43.309a7 7 0 0 1-.737.59c-.25.18-.51.362-.77.532-.262.17-.534.33-.806.477a7 7 0 0 1-.85.408c-.023 0-.046-.011-.069-.045-.01-.023-.01-.057 0-.069a9 9 0 0 1 .726-.6c.25-.182.51-.352.771-.522.261-.159.533-.33.805-.477s.556-.294.85-.408c.023 0 .046 0 .069.046.01.022.01.056 0 .068zm-3.323-1.145a14 14 0 0 1-1.088.556c-.363.17-.737.329-1.112.488-.374.158-.76.294-1.133.43-.386.136-.771.261-1.168.352-.023 0-.057-.011-.068-.057 0-.034 0-.056.023-.068.35-.204.714-.385 1.088-.555s.737-.33 1.122-.477c.374-.147.76-.295 1.146-.42.385-.135.77-.26 1.168-.362.022 0 .056.011.067.045 0 .034 0 .057-.022.068zm8.776 2.121c-.42.193-.85.363-1.282.522-.43.158-.861.317-1.303.453a29 29 0 0 1-1.315.408 14 14 0 0 1-1.35.318c-.034 0-.056-.023-.068-.057 0-.034 0-.057.034-.068.42-.204.85-.374 1.282-.533.43-.159.861-.306 1.303-.454.443-.136.873-.272 1.327-.396.442-.125.896-.239 1.35-.33.033 0 .056.023.067.057 0 .034 0 .057-.034.068zM82.94 59.688c-1.054 1.077-2.018 2.257-2.732 3.584-.352.658-.635 1.36-.737 2.087-.057.328-.068.873.011.76l1.418-.216c-.488.828-.568 1.043-.783 1.485-.51 1.146-.884 2.348-1.01 3.584a6.7 6.7 0 0 0 .092 1.838l.079.272.09-.057 1.09-.692.237 3.187.148 2.018.487-.657c.238-.363.5-.715.726-1.077.93-1.464 1.769-2.983 2.437-4.582.67-1.588 1.19-3.266 1.372-4.98.193-1.7 0-3.492-.827-5.012-.102-.204-.148-.374-.102-.374.034 0 .136.136.226.306.896 1.531 1.134 3.357.987 5.104-.159 1.758-.658 3.459-1.327 5.092a30.4 30.4 0 0 1-2.437 4.66c-.227.375-.488.738-.726 1.101l-.385.533-.692.896c-.09.17-.068-.046-.08-.136l-.022-.33-.046-.578-.045-.646-.09-1.304-.182-2.518-.521.33-.307.192-.192.125s-.057.01-.057-.034l-.034-.114-.17-.646a6.6 6.6 0 0 1-.08-1.95c.137-1.294.545-2.53 1.078-3.687.17-.374.476-.952.476-.93l-.84.114-.248.034s-.057-.012-.057-.057v-.499a2.5 2.5 0 0 1 .056-.59c.125-.77.442-1.496.805-2.166.76-1.338 1.77-2.506 2.858-3.56.17-.16.317-.261.328-.216 0 .034-.102.17-.238.306z"/><path fill="#b58f69" d="M80.534 66.046c.102-.216.227-.409.352-.602a5 5 0 0 1 .42-.544c.147-.181.305-.34.487-.499.181-.147.363-.306.6-.385.012 0 .046.01.058.045.01.023.022.056 0 .068-.193.238-.307.385-.42.521-.147.17-.284.352-.442.522-.148.17-.306.34-.465.5a7 7 0 0 1-.51.464c-.012 0-.046 0-.068-.022-.023-.023-.034-.046-.034-.057zm-40.18 7.431c-2.687 4.457-5.182 9.039-7.62 13.643l-.895 1.735c-.147.295-.295.578-.43.873-.103.307-.227.59-.307.908a69 69 0 0 0-.896 3.799 286 286 0 0 0-1.508 7.666 643 643 0 0 0-2.664 15.401l-.59 3.856-.26 1.928c-.012.318-.08.635-.046.93.023.306.114.601.204.907.42 1.202.998 2.393 1.372 3.663a14.7 14.7 0 0 1 .67 3.89c.01.318 0 .681 0 .975.022.046.022-.034-.046.114-.012-.011 0 .057-.023 0-.011-.046-.08-.057-.08-.068s.012-.023.024-.057c.034-.124.045-.283.056-.442.034-.635 0-1.282-.045-1.928a37 37 0 0 0-.488-3.856c-.113-.635-.25-1.27-.408-1.894l-.125-.465-.068-.227-.045-.136c-.045-.057.023-.192.011-.204a12 12 0 0 0 .17-.941l.601-3.856 2.336-15.458c.408-2.574.828-5.148 1.293-7.711q.34-1.923.748-3.845c.17-.635.272-1.27.499-1.905.181-.647.51-1.214.782-1.803 1.18-2.325 2.483-4.594 3.776-6.85 1.326-2.246 2.596-4.514 4.036-6.691.386-.59.692-.987.68-.908-.01.08-.26.488-.566.976-1.418 2.189-2.665 4.48-3.969 6.725-1.281 2.268-2.562 4.536-3.719 6.86-.272.59-.6 1.158-.76 1.782-.215.6-.317 1.247-.476 1.882-.26 1.27-.498 2.552-.725 3.834a352 352 0 0 0-1.248 7.711l-2.29 15.458-.59 3.867c-.045.317-.113.646-.18.975-.035-.011.067.216.101.363l.136.476c.17.636.306 1.282.42 1.929a37 37 0 0 1 .487 3.901c.046.657.08 1.304.046 1.984-.012.17-.023.34-.08.533 0 .046-.034.102-.068.159-.045.068-.147.181-.328.136a.4.4 0 0 1-.193-.147c-.057-.08-.114-.136-.091-.227 0-.363.023-.658 0-.987a13.5 13.5 0 0 0-.646-3.788c-.374-1.236-.941-2.392-1.372-3.651a4.8 4.8 0 0 1-.227-.998c-.045-.352.023-.681.046-1.021l.26-1.939.601-3.867a644 644 0 0 1 2.71-15.402 296 296 0 0 1 1.542-7.666c.272-1.27.567-2.552.918-3.81.08-.318.216-.635.33-.942.135-.295.283-.59.441-.873l.907-1.735c2.46-4.593 4.989-9.152 7.733-13.586.374-.59.68-1.01.669-.93 0 .068-.25.499-.556.998z"/><path fill="#b58f69" d="M29.434 95.999c-1.837-2.041-4.093-3.72-6.61-4.786a14.1 14.1 0 0 0-3.957-.953l-1.02-.045c-.34 0-.681.045-1.021.057h-.193v.022c.023.023-.045-.056.046.046.238.272.43.555.623.85 1.52 2.36 2.46 4.979 4.06 7.202.793 1.111 1.734 2.121 2.924 2.767 1.18.646 2.574.93 3.935.76.181 0 .317.011.306.056-.012.034-.136.068-.295.08a6.55 6.55 0 0 1-4.082-.646c-1.258-.647-2.267-1.68-3.084-2.802-1.666-2.257-2.641-4.899-4.115-7.19a6 6 0 0 0-.601-.816l-.284-.352-.158-.204-.08-.102s.08 0 .114-.011l.838-.057c.352-.023.703-.068 1.055-.057l1.054.046a14 14 0 0 1 4.06 1.02c2.562 1.123 4.807 2.88 6.576 5.013.113.147.181.272.136.283-.034 0-.136-.08-.239-.193z"/><path fill="#b58f69" d="M16.395 90.123c1.145.397 2.245.907 3.311 1.463a31 31 0 0 1 3.118 1.849 28 28 0 0 1 2.891 2.189c.93.782 1.769 1.644 2.574 2.551.057.057.068.125.034.148-.034.011-.08 0-.136-.057-.885-.816-1.758-1.622-2.71-2.37a44 44 0 0 0-2.88-2.132 40 40 0 0 0-3.05-1.883 39 39 0 0 0-3.197-1.633c-.068-.034-.114-.08-.102-.113.022-.023.08-.034.147 0zm4.924 8.407c.42-.035.828-.057 1.247-.057s.828 0 1.247.01c.42.012.828.035 1.247.069.409.034.828.08 1.236.159.023 0 .046.034.046.08 0 .033-.023.056-.046.056-.42.045-.827.057-1.247.068-.42 0-.828 0-1.247-.023-.42-.022-.828-.045-1.247-.08a15 15 0 0 1-1.236-.147c-.023 0-.046-.034-.046-.079 0-.034.023-.057.046-.057m1.755 1.938c.226-.08.442-.125.668-.17s.454-.068.68-.091q.34-.034.681-.034c.227 0 .453 0 .692.057.01 0 .034.034.034.068s0 .056-.023.056a3.7 3.7 0 0 1-.669.171 7 7 0 0 1-.68.09c-.227.023-.454.034-.68.023-.227 0-.454 0-.692-.045-.012 0-.034-.034-.034-.068 0-.035 0-.057.023-.057"/><path fill="#b58f69" d="M24.912 95.271a3.4 3.4 0 0 1-.375-.521 7 7 0 0 1-.567-1.123 3.5 3.5 0 0 1-.18-.612c0-.012.022-.034.056-.057q.05-.018.068 0c.147.159.272.34.374.51.113.181.215.363.306.556.09.193.181.385.25.578.079.193.136.397.18.613 0 .01-.022.034-.056.056q-.05.018-.068 0zm1.643 1.373a1.7 1.7 0 0 1-.182-.352 5 5 0 0 1-.113-.374 2 2 0 0 1-.057-.386c0-.124 0-.26.034-.396 0 0 .034-.023.068-.034h.057c.09.113.147.227.193.351q.068.188.102.374c.022.125.045.25.045.386 0 .125 0 .26-.023.397 0 0-.034.023-.068.034zm-8.042-3.062c.33.045.658.113.987.181.329.08.646.159.963.25q.477.135.953.306c.317.113.624.238.918.397.023 0 .023.045.012.079 0 .034-.034.046-.057.046a7 7 0 0 1-.987-.182c-.328-.08-.646-.159-.963-.261a23 23 0 0 1-.941-.317 10 10 0 0 1-.93-.386c-.023 0-.023-.045-.011-.08 0-.033.034-.045.056-.045zm11.467 10.311c1.735 1.939 3.889 3.47 5.59 5.489.85.997 1.621 2.109 2.052 3.368.113.317.17.646.25.975.056.329.056.669.09.998 0 .329-.056.669-.09.998-.035 0 .09.216.147.34.08.136.159.273.25.397.475.692 1.099 1.293 1.677 1.928.295.329.579.635.805 1.089.046.091.068.181.102.283l.046.148s.022.057.01.068h-.067c-.159.023-.465.034-.521.045l-.375.023.148.363.227.623c.135.42.272.84.385 1.271.227.862.374 1.735.43 2.62.057.884 0 1.791-.215 2.664l-.317 1.021c-.204-.193-.533-.771-.612-.828l-.794-1.032c-.805-1.032-1.621-2.052-2.404-3.096a32 32 0 0 1-1.134-1.61 15 15 0 0 1-.521-.851c-.09-.136-.159-.294-.238-.442-.034-.079-.012-.023-.023-.045.08-.261-.227.725-.295 1.27-.045.317-.08.635-.08.941-.01.091.046.465.058.726v.317c0 .091-.08 0-.125-.022a2 2 0 0 1-.159-.102c-.102-.079-.193-.136-.306-.238-.057-.046-.102-.114-.147-.171l-.091-.101c-.102-.137-.204-.273-.283-.42a8 8 0 0 1-.477-.885 11 11 0 0 1-.68-1.871 11.4 11.4 0 0 1-.42-3.153c0-.533.057-1.066.137-1.587-.091-.171-.647-1.033-.59-.965l-.25.817-.136.454s-.034.204-.079.17l-.147-.193c-.091-.125-.227-.261-.272-.363l-.136-.272c-.318-.76-.363-1.565-.431-2.336-.136-1.543-.068-3.176-.794-4.548-.181-.295-.329-.499-.272-.499.034 0 .227.181.385.431.794 1.417.749 3.062.907 4.604.08.772.148 1.566.443 2.246.215.419.226.431.272.238l.43-1.429.602.93.215.329.102.17s.136.159.08.284c-.069.51-.114 1.02-.114 1.542 0 1.032.147 2.064.43 3.051.17.623.398 1.225.67 1.803.136.295.294.567.453.839.08.136.182.261.273.385l.067.091v-.26c0-.341.023-.681.08-1.01.045-.329.113-.657.204-.975.057-.193.057-.238.181-.601a4 4 0 0 1 .16-.431c.056-.114.101-.397.17-.136.113.261.237.578.35.816.08.136.137.284.227.42q.24.426.51.816c.363.533.737 1.067 1.123 1.588.783 1.044 1.587 2.064 2.392 3.096l.806 1.055.124.181.068-.238c.204-.828.25-1.689.204-2.54-.045-.862-.204-1.713-.42-2.552-.101-.419-.237-.828-.373-1.247l-.227-.613-.125-.306-.25-.556c1.021-.056 1.078-.022 1.032-.068-.158-.317-.442-.669-.725-.975-.567-.635-1.19-1.248-1.69-1.985a5 5 0 0 1-.26-.431 1.4 1.4 0 0 1-.114-.226c-.022-.046-.113-.205-.068-.329.023-.318.08-.635.09-.941-.022-.318-.022-.636-.078-.953-.08-.306-.125-.624-.227-.93-.408-1.214-1.134-2.302-1.962-3.3-1.655-2.008-3.775-3.573-5.499-5.569-.215-.283-.351-.499-.306-.499.046 0 .216.182.408.409zm-2.27 2.004c-1.849.885-3.753 1.542-5.51 2.552-1.747.998-3.413 2.177-4.672 3.72-.612.782-1.19 1.61-1.553 2.529l-.125.295v.011c.034 0-.045.011.08-.011.113-.035.237-.057.362-.091.476-.136.952-.306 1.417-.488 1.849-.783 3.72-1.633 5.239-2.937.102-.091.192-.136.204-.102s-.034.113-.114.192c-1.485 1.43-3.344 2.348-5.204 3.187-.476.193-.952.386-1.451.533-.125.046-.25.068-.374.102-.125.046-.443.08-.67.114-.192.068-.09-.091-.045-.193l.148-.34.17-.408c.374-.964.975-1.826 1.61-2.632 1.315-1.599 3.038-2.789 4.819-3.765 1.791-.986 3.753-1.61 5.6-2.37.114-.068.216-.091.227-.057s-.056.102-.158.17z"/><path fill="#b58f69" d="M18.979 114.178c-1.871 1.633-3.175 4.003-3.118 6.476 0 .193 0 .374.034.567l.034.261 1.689-1.282c.318-.249.635-.499.941-.76l.454-.397.124-.113c.068-.068.148-.159.216-.25l.43-.521c.103.85-.09 1.961-.056 1.667l.42-.204c.249-.159.487-.352.736-.522.216-.204.42-.431.635-.647l.545-.725c.669-1.021 1.122-2.189 1.553-3.357.43-1.18.828-2.37 1.36-3.527.533-1.145 1.225-2.28 2.28-3.006.136-.102.249-.147.26-.102 0 .034-.08.125-.181.216-.987.76-1.622 1.871-2.11 3.005-.487 1.146-.85 2.348-1.269 3.539-.42 1.179-.862 2.37-1.565 3.447l-.566.771c-.227.227-.443.465-.68.692-.262.193-.522.397-.794.567l-1.26.613.024-.08c.079-.249.17-.544.215-.76.023-.113.034-.238.045-.351v-.148l-.09.091-.465.408c-.318.261-.635.522-.964.771l-.975.738-1.247.907-.08-.896a3.4 3.4 0 0 1-.022-.59c-.023-2.597 1.406-5.012 3.379-6.577.136-.103.26-.159.26-.114 0 .034-.068.125-.181.216zm8.075 19.676c-.692.454-1.224 1.134-1.587 1.86-.182.374-.306.76-.363 1.168-.034.204-.034.397-.034.601l.023.295v.068c-.057.091.396-.34.691-.59l.499-.442.465-.408.113-.102s.091-.091.068 0v.306a3.6 3.6 0 0 0-.034.567l.034.295c.034.193.091.386.17.556.148.362.397.691.67.986.271.295.6.556.93.783.17.113.34.227.52.329l.273.147.181.091c.023-.079.057-.182.068-.272a5 5 0 0 0 .068-.601c.023-.408-.023-.817-.08-1.225-.26-1.633-1.054-3.176-2.21-4.378-.08-.079-.113-.17-.08-.181.035-.011.103.023.17.091a7.83 7.83 0 0 1 2.472 4.411c.068.431.125.862.102 1.293 0 .215-.022.442-.068.658-.011.113-.056.215-.079.34-.09.148-.113.51-.352.306-.226-.102-.283-.136-.385-.181l-.284-.159a6 6 0 0 1-.555-.34 6 6 0 0 1-.998-.84c-.295-.328-.578-.68-.737-1.099a3.3 3.3 0 0 1-.193-.647l-.034-.34v-.057c0-.023 0 0-.022 0l-.465.386-.488.408-.317.261-.227.192-.113.091-.034-.113-.102-.556-.023-.329c0-.215.011-.442.057-.657a4.3 4.3 0 0 1 .43-1.237c.42-.759.998-1.44 1.758-1.859.102-.057.193-.057.204-.023 0 .034-.057.091-.136.136zm2.449-28.644a109 109 0 0 1 3.288 5.114 115 115 0 0 1 3.016 5.274 69 69 0 0 1 2.665 5.466c.805 1.86 1.519 3.788 1.848 5.795.022.136.011.238-.023.227-.034 0-.08-.091-.102-.204-.442-1.962-1.213-3.845-2.052-5.671a89 89 0 0 0-2.699-5.42 161 161 0 0 0-2.959-5.297 486 486 0 0 0-3.095-5.216c-.068-.114-.102-.216-.057-.227.034 0 .102.057.17.159"/><path fill="#b58f69" d="M32.199 109.644c-.046.261-.103.51-.16.759-.067.273-.124.499-.17.738-.056.238-.101.465-.158.737-.045.249-.102.488-.125.748 0 .023-.034.034-.068.034s-.056 0-.056-.022c-.091-.261-.102-.533-.091-.805 0-.273.056-.534.125-.783a5.2 5.2 0 0 1 .612-1.452c0-.011.045-.011.08 0 .033.012.044.034.044.046zm2.846 4.967c-.09.374-.204.737-.306 1.111-.125.385-.227.737-.34 1.089-.114.351-.227.703-.351 1.077-.103.363-.227.715-.273 1.077 0 .023-.033.046-.067.046-.035 0-.057-.012-.057-.034-.08-.409 0-.805.056-1.18.08-.385.182-.748.306-1.122.125-.363.261-.726.409-1.078.147-.351.317-.703.51-1.043.011-.023.045-.023.08-.011.033.011.045.045.033.056zm-1.301-2.348a2.4 2.4 0 0 1-.08.329c-.045.147-.079.215-.102.306-.034.102-.079.192-.124.294a2 2 0 0 1-.17.295h-.08c-.034 0-.057-.011-.057-.022-.045-.125-.056-.25-.045-.375.012-.124.045-.238.091-.351a1.3 1.3 0 0 1 .181-.318c.08-.09.16-.181.272-.249 0 0 .034 0 .069.034.022.023.045.034.045.045zm3.458 6.35c.17 0 .34.034.499.091s.317.125.465.216c.147.09.283.192.397.329.113.136.204.294.238.476 0 .011-.023.034-.057.045-.023.011-.057.023-.057.011a7 7 0 0 0-.363-.272 10 10 0 0 0-.374-.249c-.113-.08-.226-.148-.385-.25a4 4 0 0 1-.397-.272v-.079c0-.034.023-.046.034-.046m-9.569-11.77c-.692.465-1.383.907-2.086 1.349-.715.442-1.406.885-2.11 1.315-.702.431-1.394.874-2.108 1.305a65 65 0 0 0-2.086 1.327c-.046.034-.102.034-.114 0-.011-.023 0-.068.034-.102.624-.567 1.293-1.055 1.973-1.531.68-.477 1.383-.919 2.086-1.361a68 68 0 0 1 2.143-1.271 41 41 0 0 1 2.2-1.168c.045-.022.102-.022.113.023.011.034 0 .068-.045.102zM15.75 121.718c.26-.555.556-1.088.873-1.61s.646-1.032 1.01-1.52a17 17 0 0 1 1.156-1.429c.42-.453.85-.884 1.36-1.236.034-.022.08-.022.102 0 .023.023.012.068 0 .091-.408.442-.793.907-1.179 1.372-.374.465-.737.953-1.1 1.429-.351.488-.691.964-1.054 1.474-.329.477-.658.942-1.043 1.486-.023.034-.068.045-.091.023a.09.09 0 0 1-.023-.091zm16.474-48.494a61 61 0 0 0-2.052 1.18c-.329.204-.669.42-.975.657-.08.08-.09.034.057.17l.566.522-.317.272-.181.159-.352.329c-.669.657-1.292 1.384-1.78 2.166a6 6 0 0 0-.578 1.248l-.08.328s-.022.114-.022.17c0 0 .011 0 .045-.01h.045l.182-.046c1.02-.136 1.95.056 2.902.09.941.068 1.883.057 2.812-.079 1.86-.272 3.572-1.202 4.989-2.45.102-.079.193-.113.204-.079s-.034.102-.113.181c-1.35 1.35-3.096 2.382-5.023 2.71-.952.171-1.939.182-2.891.126-.953-.034-1.928-.216-2.8-.091-.057 0-.103 0-.17.023l-.296.102-.294.102c-.08.056-.012-.08-.023-.114v-.181l.045-.352c0-.067 0-.124.034-.192l.091-.363a6.3 6.3 0 0 1 .635-1.339c.521-.828 1.18-1.553 1.87-2.211l.363-.329.193-.159.057-.045-.295-.295-.317-.306-.046-.045.046-.046.102-.08.192-.147a10 10 0 0 1 1.02-.635 31 31 0 0 1 2.11-1.089c.113-.056.215-.067.215-.034 0 .034-.068.091-.158.148z"/><path fill="#b58f69" d="M26.326 80.62a42 42 0 0 1 2.245-1.69 47 47 0 0 1 2.358-1.53q1.208-.732 2.483-1.328c.85-.397 1.746-.737 2.676-.884.068-.012.113 0 .113.045 0 .034-.034.068-.09.08-.885.26-1.723.657-2.551 1.077s-1.633.873-2.438 1.35c-.805.476-1.587.963-2.381 1.462-.77.488-1.53.987-2.358 1.509-.057.034-.114.034-.125 0s0-.08.045-.114zm5.58-.046c.397-.352.726-.624 1.054-.907.363-.318.715-.613 1.055-.908.351-.306.68-.6 1.043-.907.34-.306.68-.612.986-.964.023-.023.057-.023.091 0 .023.023.034.045.023.068-.216.442-.522.805-.84 1.157-.328.34-.668.669-1.031.964-.363.306-.726.59-1.111.862a11 11 0 0 1-1.202.76c-.046.022-.08 0-.08-.034s0-.069.012-.08zm65.998 35.887c-1.939-.329-3.98-.579-5.873-.068a4 4 0 0 0-1.282.669l-1.213.873c-.805.578-1.621 1.157-2.324 1.837-.737.658-1.213 1.497-1.905 2.291-.77.737-1.723 1.1-2.302 1.86-.294.329-.35.816-.442 1.304-.08.488-.136.987-.272 1.486-.124.487-.34 1.043-.839 1.372-.408.261-.805.567-1.213.851-.873.646-1.893 1.202-3.005 1.372l.046-.385c.612.215 1.36.181 2.052.113a8 8 0 0 0 2.064-.499c.646-.273 1.27-.624 1.61-1.214.396-.589.623-1.236.793-1.962.068-.249.17-.521.352-.737s.397-.363.612-.51c.42-.272.839-.522 1.213-.839.76-.613 1.338-1.418 1.837-2.269 1.043-1.689 1.882-3.504 3.061-5.137.17-.215.352-.318.34-.272 0 .045-.113.181-.238.351-1.11 1.645-1.916 3.482-2.925 5.206-.487.862-1.077 1.724-1.87 2.37-.386.329-.829.601-1.237.874-.42.272-.714.566-.805 1.054-.147.692-.408 1.452-.816 2.064-.397.68-1.111 1.089-1.78 1.384a9 9 0 0 1-2.166.533c-.737.068-1.485.124-2.256-.136l.045-.386c1.032-.159 1.973-.669 2.835-1.304.397-.284.794-.601 1.236-.873.351-.227.556-.669.669-1.123.124-.465.181-.953.272-1.452.09-.476.159-1.043.533-1.485.669-.84 1.678-1.225 2.347-1.872.623-.703 1.168-1.61 1.939-2.279.736-.692 1.576-1.27 2.38-1.837l1.225-.851a4.2 4.2 0 0 1 1.372-.681c1.995-.499 4.025-.192 5.975.194.26.056.454.135.408.158-.034.023-.215 0-.442-.034z"/><path fill="#b58f69" d="M76.792 130.045c-.862-.091-1.803-.068-2.585.317-.828.352-1.655.715-2.551.896-.42.068-.998.147-1.384-.261-.35-.386-.408-.884-.498-1.315s-.148-.885-.499-1.032c-.374-.204-.805-.352-1.213-.579-.397-.227-.817-.51-1.055-.952-.238-.454-.238-.964-.17-1.418.057-.454.182-.896.136-1.282-.034-.397-.317-.691-.646-.975-.329-.283-.703-.544-1.032-.907-.159-.182-.306-.397-.362-.669-.057-.272 0-.556.113-.783.487-.907 1.372-1.304 2.052-1.837.737-.499 1.054-1.27 1.496-2.098.216-.397.545-.794.896-1.077.352-.295.703-.567 1.077-.828a43 43 0 0 1 4.558-2.881c.397-.215.794-.419 1.225-.59.42-.192.93-.249 1.383-.226.919.034 1.803.226 2.676.419l2.608.647c.215.056.43.102.646.125.238.022.465.113.669.215.408.204.782.476 1.122.76.182.159.295.306.25.306-.034 0-.17-.091-.329-.204-.352-.272-.714-.522-1.111-.703-.386-.205-.84-.171-1.281-.295l-2.62-.579c-.873-.17-1.757-.34-2.63-.362-.873-.08-1.633.408-2.426.816a44 44 0 0 0-4.501 2.881c-.703.555-1.463 1.009-1.86 1.792-.385.737-.794 1.689-1.599 2.211-.714.544-1.564.975-1.938 1.69-.182.351-.102.703.192 1.009.272.306.635.567.987.873.329.284.737.692.77 1.225.046.51-.09.953-.147 1.384-.068.419-.056.85.125 1.202.181.351.533.612.907.828s.794.374 1.202.59c.215.09.43.362.499.578.08.227.113.465.159.68.068.431.136.885.397 1.169.249.294.714.26 1.133.192.862-.147 1.69-.487 2.517-.828.85-.374 1.792-.374 2.687-.249.25.045.409.147.363.17-.034.023-.192 0-.385-.034z"/><path fill="#b58f69" d="M85.58 114.96a34 34 0 0 0-2.392-.125c-.794-.011-1.599 0-2.392.057-.794.045-1.588.147-2.37.272-.782.136-1.553.318-2.324.544-.057.012-.103 0-.114-.034 0-.034.023-.068.057-.079a11 11 0 0 1 2.302-.771 14.4 14.4 0 0 1 2.415-.329 22 22 0 0 1 2.426 0c.805.057 1.61.159 2.404.34.056.011.09.057.08.091 0 .034-.058.045-.103.045zm-.07 6.568c-.782.51-1.587.998-2.392 1.486-.805.476-1.621.941-2.449 1.406-.816.454-1.656.896-2.494 1.316-.84.419-1.678.839-2.597 1.134-.056.022-.113 0-.113-.034 0-.035.034-.069.08-.091.838-.397 1.643-.885 2.471-1.327.828-.454 1.644-.907 2.46-1.361.828-.442 1.644-.885 2.472-1.338a73 73 0 0 1 2.494-1.293c.057-.023.114-.023.125.011 0 .034-.011.068-.057.102zm-14.396-18.53c-.102-.307-.215-.624-.26-.965-.058-.34.067-.748.328-.986.499-.488 1.077-.805 1.644-1.146a87 87 0 0 1 1.723-.963c.306-.16.545-.307.874-.477.374-.17.77-.09 1.1 0 .646.193 1.235.51 1.813.465.261-.023.556-.181.874-.306.306-.125.623-.227.963-.306.329-.08.692-.102 1.032-.068.386.068.669.238.964.397.578.329 1.122.703 1.644 1.088.068.057.102.114.08.136-.023.023-.092 0-.148-.034a25 25 0 0 0-1.7-.963c-.285-.137-.59-.284-.863-.318a2.8 2.8 0 0 0-.918.09c-.306.08-.6.194-.907.318-.295.114-.578.295-.975.34-.76.069-1.372-.306-1.973-.465-.295-.09-.59-.136-.828-.022l-.85.453c-.578.306-1.157.613-1.735.908-.567.317-1.156.623-1.621 1.032-.5.408-.284 1.122-.125 1.735.023.091 0 .159-.022.159-.034 0-.08-.046-.103-.125zm2.504 10.355c-.533-.715-.43-1.724-1.111-2.098-.329-.216-.726-.408-1.043-.726a2.5 2.5 0 0 1-.692-1.146c-.192-.941.182-1.746.386-2.529.238-.782.476-1.576.374-2.393 0-.056.023-.102.057-.102s.056.034.068.08c.227.839.033 1.712-.16 2.506-.18.794-.498 1.622-.34 2.336.092.363.296.704.568.976s.623.465.975.725c.839.59.623 1.645 1.009 2.28.034.034.045.079.022.113-.022.023-.067.023-.113-.022m.555 17.256c-.737.998-1.452 2.041-1.95 3.164-.647 1.134-.17 2.359.135 3.561.159.601.34 1.214.34 1.871a13 13 0 0 0-.045 1.861c.045 1.236.17 2.483.442 3.685.114.454.227.919.397 1.35.068.227.181.431.272.646.046.068.09.182.09.125l1.43-2.824.895 2.608.193.545s0 .023.045 0c.318-.216.624-.442.93-.669 1.213-.93 2.347-1.962 3.3-3.153.374-.488.737-.987 1.02-1.52.159-.261.272-.544.386-.827.034-.08.056-.114.09-.228l.114-.408.226-.805c.533 1.225.68 1.713.873 2.189l.046-.091.408-.839c.521-1.123 1.02-2.268 1.304-3.459a6 6 0 0 0 .09-.442c0-.046.046-.216.034-.386l.023-.453v-.216s0-.204.057-.079l.25.374.43.635.522.771.25.363s.022.057.033.011l.284-.669.34-.873c.215-.578.43-1.168.612-1.758.385-1.179.714-2.381.975-3.595.499-2.427.794-4.933.476-7.405-.034-.329-.034-.579 0-.545.034.023.09.25.125.533.374 2.484.136 5.024-.34 7.485a37 37 0 0 1-.941 3.641 34 34 0 0 1-.601 1.78l-.34.885-.182.431-.272.612-.09.193c-.012.056-.035.022-.057-.011l-.057-.091-.25-.363-.283-.408-.533-.772-.102-.147s-.011-.023-.011 0v.023l-.011.09c-.012.159-.057.318-.091.477-.295 1.247-.794 2.404-1.315 3.55l-.408.85-.375.726-.056.102s-.034.068-.046 0l-.09-.216-.17-.431a60 60 0 0 1-.477-1.224l-.022.09v.046l-.102.204c-.125.295-.239.601-.409.873-.294.567-.668 1.089-1.065 1.588-.987 1.213-2.144 2.268-3.38 3.209-.305.238-.623.465-.94.681l-.454.294c-.068-.136-.136-.362-.181-.499l-.181-.544-.601-1.769-1.18 2.291-.158.295c-.023.09-.046-.034-.08-.057l-.079-.136-.295-.522c-.09-.227-.204-.442-.283-.68-.17-.454-.284-.93-.397-1.406a20 20 0 0 1-.408-3.754c-.012-.624 0-1.27.068-1.883 0-.589-.159-1.202-.306-1.803-.16-.601-.318-1.213-.409-1.837-.136-.647.08-1.316.34-1.871.533-1.146 1.27-2.178 2.03-3.165.204-.26.397-.431.397-.385s-.125.238-.295.465z"/><path fill="#b58f69" d="M82.813 128.979a147 147 0 0 0-2.075 3.345 68 68 0 0 0-1.95 3.414c-.624 1.145-1.225 2.313-1.746 3.516-.522 1.19-1.02 2.415-1.304 3.685-.022.091-.068.148-.102.125-.034-.011-.045-.079-.023-.147.17-1.316.612-2.586 1.1-3.8a35 35 0 0 1 1.712-3.572 54 54 0 0 1 2.019-3.391 57 57 0 0 1 2.255-3.243c.057-.068.114-.103.148-.08.023.023 0 .091-.034.148m2.608-16.579c-2.993-1.69-5.975-3.38-8.957-5.058l-4.478-2.529-2.245-1.247-1.123-.613-.567-.295-.272-.124c-.238-.046-.283-.363-.25-.477.046-.261.216-.578.568-.623.328.045.51.17.703.249l1.156.567 2.29 1.18 4.535 2.426c3.005 1.668 6.021 3.301 8.878 5.217.193.136.306.25.261.273-.034.011-.181-.057-.34-.159-2.903-1.804-5.964-3.38-8.98-5.002l-4.558-2.393-2.29-1.168-1.145-.567c-.204-.09-.397-.181-.488-.215-.09 0-.192.125-.215.283l4.252 2.37 4.456 2.575a635 635 0 0 1 8.855 5.239c.204.125.329.239.294.25-.034.023-.181-.045-.351-.136zM26.509 16.374c1.541.521 3.163.657 4.761.907 1.622.045 3.232.204 4.853.045 3.243-.102 6.44-.748 9.58-1.497 6.26-1.655 12.314-4.184 17.734-7.734 2.664-1.803 5.272-3.81 7.154-6.42l.34-.498.17-.25s.16-.306.329-.317c.17-.045.34.102.42.26.056.103.09.216.124.318.057.216.102.42.125.635.034.42.034.862-.17 1.293-.26.443-.6.624-.896.919A58 58 0 0 1 67.19 7.05a63 63 0 0 1-8.322 5.092c-1.43.783-2.937 1.407-4.422 2.087-.749.33-1.52.59-2.28.885-.77.272-1.507.612-2.301.816-6.202 1.974-12.824 2.813-19.309 1.951-.816-.034-1.61-.272-2.403-.43l-2.393-.523-.295-.068-.147-.034h-.09l-.602.046-1.213.09a35 35 0 0 1-2.449.08c-3.254-.034-6.542-.51-9.603-1.667a24.8 24.8 0 0 1-8.288-5.104l-.896-.839c-.295-.283-.544-.612-.816-.907L.51 7.55l-.34-.396L0 6.96s.159.022.238.022l.896.125c1.61.261 3.197.579 4.784.953 6.316 1.497 12.54 3.697 18.05 7.156.738.476 1.26.84 1.146.816-.09-.022-.612-.317-1.225-.703-5.533-3.402-11.746-5.545-18.05-6.997a68 68 0 0 0-4.773-.919L.76 7.37s-.034 0 0 .023l.056.056.76.862c.272.295.522.613.816.896l.885.828a24.6 24.6 0 0 0 8.197 5.013c3.028 1.134 6.27 1.599 9.49 1.622.805 0 1.61-.023 2.415-.08l1.213-.09.613-.046c.056 0 .079-.023.215 0l.147.034.295.068 2.37.51c.794.16 1.576.386 2.38.42 6.418.85 12.972 0 19.128-1.94.783-.203 1.52-.532 2.29-.804.749-.295 1.52-.545 2.268-.874 1.474-.669 2.971-1.293 4.388-2.064a62.4 62.4 0 0 0 8.277-5.058 54 54 0 0 0 3.82-2.982c.284-.261.659-.533.806-.794.147-.306.159-.715.136-1.089a4 4 0 0 0-.102-.556 1.6 1.6 0 0 0-.09-.25c-.012-.022-.012-.022-.023-.022l-.59.85c-1.939 2.677-4.57 4.685-7.268 6.5-5.476 3.549-11.565 6.066-17.857 7.7-3.164.737-6.373 1.36-9.638 1.451-1.621.148-3.254-.023-4.875-.08-1.61-.26-3.232-.408-4.785-.952-.85-.238-1.451-.454-1.349-.454.09 0 .68.136 1.395.33z"/><path fill="#b58f69" d="M37.838 16.988c-1.463-1.713-3.265-3.085-5.159-4.276a43.6 43.6 0 0 0-5.953-3.107c-2.052-.896-4.16-1.701-6.27-2.484-2.097-.805-4.24-1.508-6.235-2.654l-.715-.544.33-.227c.43.873 1.2 1.656 1.915 2.393.737.737 1.52 1.44 2.325 2.12a51 51 0 0 0 5.056 3.755 39 39 0 0 0 5.896 3.21c2.052.895 4.173 1.666 6.361 2.154.294.057.51.136.465.159-.034.022-.238 0-.488-.034-2.222-.431-4.365-1.168-6.451-2.03a37.3 37.3 0 0 1-5.987-3.165 48.5 48.5 0 0 1-5.113-3.753 32 32 0 0 1-2.347-2.144c-.737-.77-1.497-1.497-2.007-2.529l.329-.227.657.488c1.905 1.112 4.07 1.826 6.157 2.643 2.109.793 4.206 1.61 6.27 2.54a42.4 42.4 0 0 1 5.964 3.198c1.882 1.236 3.685 2.654 5.113 4.412.204.226.329.408.273.408-.046 0-.205-.136-.375-.329zm-8.596.769c-3.685.998-7.03 2.949-9.989 5.319-1.497 1.168-2.868 2.495-4.195 3.845-.635.714-1.315 1.383-1.905 2.12l-.918 1.09-.102.124h.43a27.5 27.5 0 0 0 5.59-.908c1.826-.487 3.606-1.179 5.216-2.154 1.61-.976 2.891-2.416 3.832-4.06.986-1.633 1.599-3.436 2.404-5.183.125-.238.26-.374.272-.329.011.045-.068.193-.147.386-.737 1.746-1.327 3.583-2.29 5.25-.92 1.679-2.234 3.199-3.878 4.23-1.644 1.021-3.447 1.736-5.307 2.235-1.86.51-3.753.827-5.68.93h-.363c-.09.011-.43 0-.623-.012h-.17c-.057 0-.137 0-.069-.068l.216-.272.363-.43.918-1.101c.601-.737 1.293-1.417 1.928-2.12 1.349-1.361 2.743-2.688 4.263-3.845 3.004-2.36 6.428-4.287 10.17-5.183.25-.057.43-.09.42-.045 0 .034-.182.113-.386.17zm12.528.173c-1.792 1.338-2.891 3.38-3.527 5.489-.646 2.132-.952 4.343-1.326 6.555-.386 2.2-.805 4.445-1.814 6.487-.272.499-.59.975-.907 1.451-.397.409-.737.885-1.19 1.236l-.579.431c-.056 0 .136 0 .26.012.137 0 .273-.034.398-.046.26-.045.544-.056.805-.136 4.24-1.19 7.732-4.581 9.501-8.596 1.848-4.071 1.633-8.79.397-13.03-.08-.296-.102-.511-.057-.488.034.022.114.215.182.453 1.349 4.23 1.667 9.028-.193 13.212-1.791 4.128-5.318 7.61-9.74 8.846-.272.08-.566.091-.85.148-.147.011-.283.045-.43.045l-.579-.034-.816-.057.669-.499.77-.567c.431-.328.75-.782 1.134-1.168.295-.453.613-.907.874-1.395.997-1.973 1.428-4.185 1.825-6.373.397-2.2.726-4.423 1.417-6.578.67-2.132 1.837-4.207 3.696-5.523.239-.181.431-.295.431-.25 0 .046-.158.193-.351.352zm13.99-5.954c-.725-1.883-2.29-3.289-4.002-4.287-1.734-1.01-3.628-1.724-5.533-2.37s-3.855-1.19-5.77-1.86c-.953-.329-1.917-.68-2.835-1.111-.477-.193-.919-.454-1.361-.692-.42-.193-1.043-.703-.862-.556l.034.08.068.17c.046.113.102.226.159.34.204.453.442.896.703 1.315a14 14 0 0 0 1.814 2.36c1.372 1.44 3.027 2.608 4.796 3.549s3.663 1.656 5.579 2.245c1.927.601 3.9.987 5.861 1.497.273.068.443.239.375.239-.046 0-.193-.069-.409-.114-1.961-.442-3.968-.782-5.907-1.35-1.95-.555-3.866-1.258-5.669-2.2-1.803-.93-3.503-2.109-4.92-3.583A14 14 0 0 1 36.01 3.22c-.273-.443-.51-.885-.726-1.361-.057-.114-.114-.227-.159-.352l-.17-.453-.272-.703L34.547 0s.193.125.272.181c1.02.704 1.157.874 1.655 1.123.443.238.862.5 1.327.68.907.42 1.848.772 2.8 1.112 1.894.67 3.833 1.236 5.749 1.905 1.905.67 3.81 1.407 5.556 2.461 1.723 1.044 3.31 2.53 3.99 4.469.103.26.148.453.103.43-.046-.01-.136-.18-.227-.385zm6.046-1.201c1.168 3.413 2.109 6.997 2.097 10.66.012 1.747-.124 3.493-.306 5.217l-.306 2.586-.147 1.293-.057.646-.022.397c-.012.215 0 .476 0 .726l-.182.056h-.012l-.192.069-.272-.579-.193-.442-.25-.601c-.158-.397-.328-.805-.476-1.202a45 45 0 0 1-.85-2.45c-.522-1.644-.964-3.323-1.258-5.035-.318-1.792-.5-3.618-.42-5.444.068-1.814.453-3.663 1.304-5.273.102-.227.215-.363.227-.318.022.034-.034.204-.114.386-.782 1.621-1.11 3.425-1.145 5.228s.17 3.595.499 5.364c.306 1.69.76 3.346 1.293 4.979.26.816.544 1.621.85 2.427.148.408.317.793.476 1.19l.318.737.022-.249.068-.658.16-1.293.316-2.585c.193-1.724.34-3.448.352-5.172.045-3.617-.816-7.167-1.893-10.615-.069-.238-.069-.43-.023-.408.034.023.09.17.147.374z"/><path fill="#b58f69" d="M61.195 10.817c.124 1.077.227 2.154.317 3.22.08 1.089.17 2.155.25 3.233.068 1.077.124 2.143.192 3.232a76 76 0 0 1 .102 3.243c0 .068-.022.125-.068.125-.034 0-.056-.046-.067-.114a75 75 0 0 1-.33-3.22c-.079-1.09-.158-2.155-.238-3.233-.056-1.077-.124-2.154-.181-3.232-.045-1.077-.09-2.154-.113-3.243 0-.068.022-.125.068-.125.034 0 .056.057.068.114m-5.943 1.748c-.783-.919-1.871-1.509-2.948-2.053-1.089-.533-2.223-.987-3.368-1.406-1.145-.42-2.29-.84-3.435-1.27-1.134-.454-2.313-.84-3.334-1.566-.068-.045-.102-.113-.068-.136.023-.022.091 0 .148.023 1.043.601 2.233.93 3.379 1.338a87 87 0 0 1 3.47 1.225c1.144.431 2.29.907 3.378 1.486 1.077.59 2.166 1.247 2.89 2.28.046.067.069.135.024.147-.034.011-.091-.023-.136-.068m-12.451 5.047c.216 1.35.283 2.71.261 4.072a26 26 0 0 1-.408 4.071 19 19 0 0 1-1.213 3.913c-.579 1.236-1.315 2.415-2.234 3.425-.056.068-.125.102-.147.068-.023-.023 0-.091.045-.16.828-1.065 1.474-2.245 2.007-3.47a22.5 22.5 0 0 0 1.134-3.855c.25-1.316.408-2.654.476-4.004s.056-2.699-.046-4.048c0-.091.012-.16.057-.16.034 0 .068.069.08.137zm-5.666-.216a97 97 0 0 1-2.869-1.463c-.952-.51-1.893-1.021-2.834-1.531-.93-.522-1.86-1.044-2.8-1.577a68 68 0 0 1-2.756-1.655c-.057-.034-.09-.091-.068-.114.023-.023.08-.023.136 0 .975.465 1.927.953 2.869 1.452.952.51 1.882 1.02 2.823 1.53.93.522 1.86 1.055 2.8 1.577.93.533 1.848 1.077 2.767 1.644.056.035.09.091.068.125-.023.023-.08.023-.136 0zm-7.407.343a32 32 0 0 1-2.404 2.71 42 42 0 0 1-2.664 2.461 30 30 0 0 1-2.925 2.155c-1.032.646-2.098 1.224-3.22 1.667-.08.034-.137.023-.148 0 0-.034.034-.08.09-.114a33 33 0 0 0 3.085-1.848 48 48 0 0 0 2.857-2.166 59 59 0 0 0 5.227-4.945c.057-.057.113-.08.136-.057s0 .091-.045.136zm-6.325-1.627c-.93-.193-1.837-.42-2.755-.657a75 75 0 0 1-5.431-1.622c-.896-.318-1.78-.647-2.642-1.044-.057-.022-.09-.068-.068-.102.023-.022.068-.034.114-.022.952.295 1.825.555 2.698.828.907.272 1.803.544 2.698.816.896.272 1.792.544 2.699.817.884.283 1.757.555 2.698.85.057.023.102.068.08.102-.012.034-.068.046-.114.034zm-4.081 39.695c-.238 1.588-1.428 2.756-2.71 3.595-.657.408-1.394.737-2.233.794-.828.09-1.77-.386-2.143-1.157-.477-.726-.386-1.758.147-2.37.51-.635 1.225-1.032 1.962-1.304 1.474-.51 3.242-.68 4.796.124.102.057.158.125.124.148-.022.023-.102 0-.192-.023-1.497-.635-3.186-.408-4.57.114-.691.272-1.349.669-1.78 1.213a1.62 1.62 0 0 0-.125 1.905c.34.658 1.021.998 1.735.942.715-.034 1.418-.33 2.053-.704 1.235-.76 2.426-1.848 2.766-3.311.023-.102.068-.17.102-.148.034.012.045.091.034.182z"/><path fill="#b58f69" d="M19.819 55.465a23 23 0 0 1-1.474.782c-.499.25-.998.5-1.497.738s-1.009.476-1.508.691c-.51.227-1.02.443-1.542.635-.034.012-.08 0-.09-.045-.012-.034 0-.068.022-.08.465-.305.941-.589 1.418-.85.487-.26.975-.51 1.485-.748a23 23 0 0 1 1.53-.67 19 19 0 0 1 1.588-.578c.034-.011.08 0 .09.046.012.034 0 .068-.022.079m42.531 46.228c-1.406.771-3.062.522-4.501.011-.726-.283-1.44-.669-1.985-1.293-.567-.6-.76-1.633-.374-2.404.283-.817 1.157-1.372 1.973-1.316.816.012 1.565.352 2.234.772 1.292.873 2.505 2.177 2.811 3.89.023.113 0 .204-.045.193-.034 0-.068-.08-.09-.171-.409-1.576-1.61-2.778-2.858-3.572-.635-.386-1.349-.669-2.04-.68a1.61 1.61 0 0 0-1.588 1.054c-.317.658-.182 1.418.295 1.951.465.556 1.122.93 1.803 1.213 1.36.522 2.947.817 4.308.205.09-.046.17-.046.181 0 0 .033-.045.09-.124.135z"/><path fill="#b58f69" d="M62.926 101.886c-.51-.216-1.02-.454-1.52-.692a36 36 0 0 1-1.485-.749c-.499-.249-.986-.51-1.474-.782a27 27 0 0 1-1.44-.85.074.074 0 0 1-.022-.103c.01-.034.045-.045.079-.034a16 16 0 0 1 1.542.624c.499.227.997.465 1.496.726.488.261.987.521 1.463.816.488.284.964.579 1.429.907a.075.075 0 0 1 .022.103c-.022.034-.056.045-.079.034zm3.582 10.126c-.93 1.939-2.925 2.971-4.898 3.549-1.01.261-2.087.409-3.186.148-1.1-.204-2.12-1.191-2.302-2.337-.329-1.111.193-2.415 1.123-2.994.907-.623 1.984-.839 3.038-.907 2.098-.068 4.445.409 6.123 2.042.113.113.159.215.102.238-.045.022-.136-.034-.238-.114-1.678-1.406-3.934-1.769-5.918-1.656-.998.08-1.996.33-2.767.862a2.18 2.18 0 0 0-.907 2.405c.17.975.918 1.678 1.86 1.894.94.238 1.96.136 2.924-.091 1.894-.499 3.855-1.429 4.864-3.164.069-.114.148-.182.193-.148.034.034.034.137-.022.25z"/><path fill="#b58f69" d="M67.28 111.774c-.725.17-1.462.307-2.199.431-.737.125-1.474.25-2.21.352-.738.113-1.474.215-2.223.295a29 29 0 0 1-2.234.204c-.045 0-.102-.034-.102-.091 0-.045.023-.091.057-.102.714-.216 1.44-.385 2.166-.533a36 36 0 0 1 2.2-.374 48 48 0 0 1 2.233-.261 30 30 0 0 1 2.268-.125c.056 0 .101.046.101.102 0 .046-.022.091-.067.102zm-40.474-78.42c.657 2.053-.068 4.174-1.1 5.954-.544.885-1.236 1.735-2.211 2.302-.941.601-2.358.601-3.277-.102-1.009-.578-1.52-1.882-1.247-2.937.227-1.078.85-1.974 1.576-2.756 1.474-1.497 3.503-2.767 5.85-2.744.16 0 .261.056.239.102s-.125.08-.238.08c-2.189.135-4.07 1.428-5.431 2.88-.67.748-1.225 1.61-1.406 2.528a2.19 2.19 0 0 0 .997 2.37c.794.58 1.826.59 2.654.092.838-.477 1.507-1.248 2.052-2.076 1.031-1.667 1.814-3.697 1.349-5.647-.034-.125-.023-.239.034-.25.045 0 .113.08.159.193z"/><path fill="#b58f69" d="M27.2 32.638a30 30 0 0 1-1.305 1.826 67 67 0 0 1-1.36 1.78c-.454.59-.93 1.169-1.406 1.747a35 35 0 0 1-1.474 1.69c-.034.034-.09.034-.136 0-.034-.034-.045-.08-.023-.114.363-.646.771-1.27 1.202-1.882.43-.613.873-1.202 1.338-1.792s.941-1.168 1.44-1.735a31 31 0 0 1 1.553-1.656c.034-.034.102-.034.148 0 .034.034.045.08.022.113zM88.62 2.812c-.68 2.041-2.528 3.323-4.41 4.14-.964.385-2.018.668-3.141.543-1.111-.068-2.256-.907-2.585-2.018-.465-1.066-.113-2.416.737-3.108.816-.737 1.86-1.088 2.903-1.281C84.199.759 86.58.929 88.46 2.347c.125.102.182.204.136.227-.045.022-.147 0-.249-.08-1.848-1.18-4.127-1.259-6.089-.896-.975.204-1.938.579-2.63 1.202-.703.624-.975 1.588-.6 2.507.294.941 1.122 1.553 2.086 1.644.963.114 1.96-.113 2.89-.454 1.815-.725 3.652-1.905 4.434-3.753.045-.125.125-.205.17-.182s.045.136 0 .25z"/><path fill="#b58f69" d="M89.354 2.47a36 36 0 0 1-2.131.703c-.714.227-1.428.431-2.154.635-.715.205-1.44.397-2.166.579a36 36 0 0 1-2.188.487c-.045 0-.102-.022-.113-.079 0-.045 0-.09.045-.102.68-.306 1.372-.567 2.075-.805a43 43 0 0 1 2.143-.658 48 48 0 0 1 2.188-.544 29 29 0 0 1 2.234-.409c.045 0 .101.034.113.08.011.045 0 .09-.057.102z"/></svg>