<svg xmlns="http://www.w3.org/2000/svg" width="140" height="159" fill="none" viewBox="0 0 140 159"><g fill="#b58f69" opacity=".2"><path d="M70.142 102.573c-.065-2.487.217-4.973.716-7.395.498-2.422 1.279-4.778 2.19-7.092.888-2.314 1.93-4.584 2.97-6.854.52-1.146 1.04-2.27 1.496-3.46.455-1.167.91-2.378.932-3.675 0-.173-.043-.303-.108-.282-.065 0-.109.13-.13.26-.13 1.21-.65 2.357-1.171 3.481-.52 1.124-1.084 2.249-1.626 3.373-1.106 2.249-2.19 4.519-3.079 6.876s-1.67 4.757-2.103 7.265c-.433 2.486-.607 5.016-.325 7.524 0 .173.087.281.152.26.065 0 .108-.152.108-.281zm5.572-32.085c.564 1.254 1.605 2.27 2.797 2.94 1.193.692 2.493 1.103 3.75 1.579 1.258.454 2.516.973 3.426 1.902.716.995 1.496 2.227 2.364 3.244 1.69 2.097 3.534 4.108 5.528 5.946 1.02.908 1.995 1.838 3.317 2.465.174.065.326.151.564.173.108 0 .217.043.369 0l.281-.13.933-.39a33 33 0 0 1 1.886-.691 18 18 0 0 1 2.016-.584 5.7 5.7 0 0 1 .997-.173 1.7 1.7 0 0 1 .477 0h.087l-.152.476-.238.865c-.13.583-.26 1.167-.325 1.773s-.109 1.21.065 1.88c.021.174.13.325.195.498.13.13.282.303.433.41.282.152.564.325.846.433 2.211.908 4.423 1.6 6.547 2.552 2.125.93 4.207 2.01 6.006 3.416.889.735 1.734 1.492 2.428 2.4l.282.368a6 6 0 0 0 .542.648l.13.152s.087-.108.109-.152l.238-.346c.152-.216.325-.54.347-.648.238-.627.282-1.254.26-1.882-.065-1.426-.412-2.745-.845-4.064-.477-1.363-1.366-2.465-2.234-3.503-.888-1.038-1.842-1.99-2.666-3.027-.824-.973-1.236-2.292-1.93-3.46-2.536-4.778-5.377-9.427-8.954-13.514-1.799-2.032-3.772-3.935-6.135-5.383-2.385-1.406-5.052-2.14-7.762-2.487a19.3 19.3 0 0 0-8.087.778c-2.602.844-4.986 2.163-7.263 3.633-.607.39-1.019.735-.91.735.086 0 .541-.216 1.04-.54 2.298-1.406 4.683-2.66 7.242-3.46a18.85 18.85 0 0 1 7.913-.649c2.623.368 5.268 1.125 7.501 2.509 2.255 1.405 4.185 3.286 5.941 5.297 3.49 4.065 6.287 8.692 8.78 13.427.673 1.146 1.084 2.465 1.995 3.59.867 1.08 1.821 2.032 2.667 3.048s1.669 2.076 2.081 3.265c.412 1.233.737 2.552.802 3.827 0 .541-.021 1.103-.217 1.579-.086.216-.021.064-.043.108l-.26-.346c-.737-.952-1.626-1.773-2.558-2.53-1.887-1.47-4.011-2.573-6.179-3.503-2.147-.951-4.445-1.643-6.57-2.508-.281-.108-.498-.238-.737-.367-.108-.065-.13-.13-.216-.173-.044-.109-.109-.195-.131-.325-.13-.475-.108-1.06-.043-1.6a15 15 0 0 1 .304-1.686l.216-.844.131-.41.26-.779c-.304-.065-.651-.173-.933-.173-.195 0-.39 0-.585.022a9 9 0 0 0-1.084.194c-.715.173-1.409.39-2.081.627-.651.217-1.28.476-1.908.736l-.932.389c-.217.108-.174.086-.326.065-.108 0-.26-.065-.39-.13-1.127-.519-2.168-1.449-3.165-2.335a61 61 0 0 1-5.529-5.838c-.889-1.038-1.56-2.097-2.428-3.243-1.02-.995-2.342-1.492-3.62-1.946-1.28-.454-2.58-.844-3.73-1.492-1.149-.627-2.168-1.579-2.732-2.768-.281-.649-.498-1.146-.541-1.06-.022.065.065.584.325 1.168z"/><path d="M121.134 101.86c-.976-.368-2.016-.563-3.079-.649a13 13 0 0 0-3.165.13 11.3 11.3 0 0 0-3.035.865c-.976.389-1.887.951-2.71 1.6-.066.043-.066.129 0 .173.043.043.108.064.151.043.933-.433 1.843-.865 2.819-1.168.954-.346 1.929-.562 2.927-.735a17.5 17.5 0 0 1 3.013-.238c1.019 0 2.016.087 3.035.238a.16.16 0 0 0 .152-.108c0-.065-.021-.13-.086-.13zm-50.254 1.406c5.31-1.189 10.753-1.968 16.194-2.076 1.366-.021 2.732-.021 4.055.108 1.344.13 2.645.433 3.967.779 2.602.713 5.269 1.578 8 1.946 5.377.886 10.884 1.47 15.697 3.978 4.857 2.443 8.304 6.941 10.689 11.806.173.324.347.54.39.475.043-.064-.022-.302-.152-.583-2.168-4.973-5.615-9.687-10.58-12.282-4.943-2.638-10.558-3.265-15.892-4.129-2.688-.368-5.268-1.19-7.935-1.903-1.323-.346-2.688-.649-4.076-.757s-2.775-.086-4.14-.043c-5.486.194-10.928 1.081-16.24 2.486-.368.087-.607.238-.542.281.044.044.304.022.607-.043z"/><path d="M120.636 114.963c2.147 1.146 4.25 2.357 6.266 3.675.997.671 1.995 1.363 2.884 2.163.932.756 1.344 1.859 1.105 3.027-.412 2.335-2.081 4.281-2.493 6.832-.304 2.357-.759 4.779-1.626 6.984-.13.281-.282.606-.455.779-.087.108-.109.086-.152.086a.75.75 0 0 1-.347-.173c-.52-.324-1.019-.8-1.496-1.254l-1.409-1.449-.824-.843a14 14 0 0 0-.672-.562l-.651-.411c.044.389.044.67.131 1.06.043.324.173.908.216 1.016l.304 1.275c.173.844.325 1.687.368 2.53 0 .8-.086 1.708-.628 2.054-.694.39-1.54.779-2.298 1.19-1.561.8-3.122 1.621-4.64 2.529-.781.454-1.453 1.017-2.212 1.276-.758.303-1.56.368-2.319.13-2.168-.671-3.469-2.984-4.987-4.8-1.452-1.925-2.84-3.914-4.054-5.99s-2.233-4.238-2.927-6.551c-.737-2.292-1.257-4.692-2.255-6.941-.975-2.27-2.536-4.303-4.444-5.859-1.908-1.579-4.076-2.768-6.266-3.827s-4.444-2.011-6.656-3.006c-2.19-1.016-4.423-2.054-6.179-3.697-.433-.476-.78-.8-.78-.692 0 .086.26.454.607.886 1.778 1.73 4.01 2.811 6.2 3.892 2.19 1.038 4.423 2.011 6.591 3.114 2.147 1.081 4.271 2.292 6.093 3.827 1.82 1.535 3.295 3.481 4.206 5.665.953 2.184 1.474 4.562 2.19 6.897.693 2.357 1.734 4.606 2.97 6.725 1.235 2.119 2.623 4.13 4.075 6.076a95 95 0 0 0 2.277 2.875c.824.952 1.821 1.838 3.1 2.227.932.281 1.951.195 2.819-.151.91-.324 1.604-.93 2.341-1.341 1.474-.886 3.035-1.708 4.575-2.508.78-.411 1.539-.756 2.363-1.232.997-.692.976-1.838.976-2.703-.044-.908-.196-1.794-.391-2.659l-.368-1.557a.3.3 0 0 0 .065.043l.607.605 1.452 1.449c.499.476.998.952 1.626 1.341.152.108.347.194.586.238.303.043.607-.109.737-.282.304-.324.412-.648.564-.973.889-2.335 1.301-4.735 1.604-7.178.325-2.292 1.995-4.324 2.407-6.811a3.8 3.8 0 0 0-.152-1.903c-.217-.648-.716-1.102-1.149-1.535-.933-.821-1.951-1.513-2.97-2.162-2.06-1.297-4.207-2.465-6.375-3.568-.585-.302-1.04-.454-1.019-.367.022.086.412.324.889.584z"/><path d="M72.352 107.439c.282 1.492 1.193 2.811 2.277 3.827 1.084 1.038 2.341 1.881 3.577 2.703 2.471 1.621 4.986 3.243 6.764 5.535 1.756 2.292 2.537 5.232 2.624 8.108.043 2.919-.694 5.773-1.453 8.627-.347 1.427-.737 2.919-.672 4.498.087 1.362-.607 2.638-1.756 3.459-1.106.844-2.515 1.362-3.903 1.644-.737.151-1.366.172-2.168.172-.759.022-1.496.109-2.255.195-2.948.411-5.918.865-8.737 1.968-.737.302-1.3.821-1.951 1.038-.65.259-1.344.129-1.691-.476-.455-1.233-.434-2.854-.542-4.281 0-.389-.087-.692-.152-.627-.065.043-.108.324-.087.648 0 .735.022 1.492.065 2.227.087.757 0 1.471.39 2.271.196.346.521.67.955.8.433.129.845.043 1.235-.065.78-.238 1.366-.757 2.017-.995 2.71-1.016 5.702-1.427 8.607-1.773a26 26 0 0 1 2.19-.173c.672 0 1.539 0 2.276-.173 1.496-.302 2.97-.8 4.228-1.751 1.279-.887 2.211-2.487 2.081-4.13-.065-1.405.282-2.832.65-4.259.738-2.855 1.518-5.795 1.453-8.844-.087-3.005-.954-6.076-2.84-8.497-1.908-2.4-4.531-3.979-7.025-5.557-2.428-1.557-5.181-3.265-5.875-6.162-.087-.39-.217-.649-.26-.606s-.043.325.022.671z"/><path d="M66.002 137.449c-1.561 2.422-3.1 4.844-4.662 7.265-.802 1.233-1.452 2.465-2.558 3.309-1.084.886-2.342 1.556-3.642 2.097-5.377 1.47-11.318 3.243-15.675 7.005-.911.563-1.952.887-2.949.649-1.019-.216-1.843-.886-2.645-1.665-1.648-1.535-2.775-3.351-4.12-5.319v.043c-.758-1.081-1.777-1.816-2.71-2.616-1.105-.908-2.146-1.859-2.948-3.005a9.5 9.5 0 0 1-1.561-3.849c-.455-2.789.13-5.665 1.04-8.368.11-.367.152-.648.066-.648-.065 0-.195.259-.304.562-1.019 2.681-1.713 5.6-1.322 8.519.216 1.449.737 2.876 1.56 4.108.846 1.233 1.93 2.249 3.036 3.179.932.8 1.908 1.556 2.58 2.486v.043c1.192 1.773 2.493 3.827 4.14 5.384.803.8 1.779 1.622 3.036 1.881 1.236.281 2.515-.129 3.512-.735 4.445-3.805 9.93-5.449 15.524-7.07 1.344-.584 2.645-1.298 3.772-2.271 1.193-.929 1.886-2.313 2.624-3.502 1.474-2.465 2.97-4.909 4.444-7.373.195-.325.303-.606.217-.606-.065 0-.26.195-.434.476z"/><path d="M63.66 109.298c-1.995 3.092-3.188 6.681-5.486 9.47-.564.692-1.344 1.146-2.081 1.752-.716.605-1.366 1.254-2.017 1.902-1.279 1.298-2.58 2.595-4.075 3.59-1.496 1.038-3.21 1.556-5.03 1.665-1.822.151-3.643.173-5.486.237-1.843.065-3.685.195-5.528.563s-3.556 1.081-5.268 1.708c-1.713.648-3.404 1.384-5.16 1.708-1.735.324-3.578.043-5.356-.216-1.777-.303-3.49-.93-4.943-1.925-1.474-.994-2.645-2.378-3.534-3.935-1.019-1.47-1.04-3.265-.975-5.081.043-1.816.086-3.697-.195-5.535-.52-3.741-2.19-7.092-3.664-10.422a174 174 0 0 0-2.429-4.93c-.412-.822-.824-1.643-1.192-2.443-.39-.865-.65-1.579-.347-2.357.564-1.578 1.908-2.94 3.404-3.827 1.56-.778 3.339-1.557 4.856-2.616a13.3 13.3 0 0 0 2.168-1.795c.326-.346.65-.692.933-1.06l.411-.583.196-.303s0-.022.043-.065c-.065 0 .217.043.39.108l.629.238c.434.173.867.346 1.3.498.89.302 1.8.54 2.754.648a9.1 9.1 0 0 0 2.862-.13c.954-.238 1.778-.54 2.667-.756a44 44 0 0 1 5.355-1.103c3.599-.519 7.306-.584 10.775.41 3.534.93 6.31 3.482 8.586 6.271 2.341 2.79 4.292 5.925 6.699 8.714 1.214 1.384 2.58 2.659 4.163 3.632 1.582.995 3.468 1.449 5.311 1.492.998-.043 1.713-.151 1.583-.216-.108-.065-.78-.065-1.583-.043-1.8-.065-3.599-.541-5.138-1.514-1.518-.973-2.84-2.249-4.033-3.632-2.363-2.79-4.27-5.925-6.612-8.779-2.277-2.832-5.16-5.557-8.824-6.53-3.6-1.038-7.393-.994-11.057-.497-1.843.26-3.642.627-5.442 1.103-.889.238-1.8.54-2.623.735a8.2 8.2 0 0 1-2.624.108c-.867-.087-1.734-.324-2.58-.627a22 22 0 0 1-1.257-.497l-.65-.26c-.239-.065-.412-.216-.911-.13-.239-.043-.347.325-.412.39l-.174.28-.39.541a20 20 0 0 1-.867.995 14 14 0 0 1-2.06 1.686c-1.496 1.038-3.122 1.73-4.813 2.573-1.647.973-3.057 2.379-3.75 4.26-.152.476-.239 1.016-.13 1.557.108.519.303.93.498 1.362.369.843.802 1.665 1.214 2.486.824 1.644 1.648 3.265 2.428 4.909 1.496 3.329 3.122 6.638 3.621 10.205.282 1.773.239 3.589.195 5.427-.065 1.795 0 3.871 1.106 5.492.932 1.6 2.19 3.092 3.772 4.152 1.561 1.081 3.383 1.708 5.225 2.032a30 30 0 0 0 2.776.303c.932.086 1.907.065 2.84-.13 1.864-.367 3.555-1.124 5.268-1.773s3.404-1.362 5.16-1.708c1.778-.389 3.599-.519 5.42-.605 1.821-.087 3.664-.109 5.507-.282 1.843-.086 3.75-.691 5.268-1.773 1.561-1.059 2.84-2.378 4.12-3.697.628-.649 1.279-1.319 1.95-1.903.673-.562 1.497-1.081 2.104-1.816 2.341-2.94 3.469-6.486 5.398-9.6.499-.843.89-1.47.76-1.427-.088.043-.543.584-.977 1.297z"/><path d="M63.963 104.26c-.672-1.795-2.125-3.027-3.339-4.346-1.257-1.297-2.471-2.66-3.36-4.195-1.605-3.178-3.1-6.616-5.29-9.578-2.168-2.984-4.879-5.6-8.13-7.417a23.7 23.7 0 0 0-10.58-2.854c-.24 0-.434.022-.413.087 0 .065.174.13.39.151 3.621.346 7.133 1.406 10.255 3.2 3.1 1.816 5.702 4.368 7.827 7.265 2.168 2.898 3.6 6.184 5.355 9.449.976 1.6 2.255 2.94 3.556 4.216 1.257 1.298 2.753 2.465 3.447 4.087.065.216.195.367.239.346.043-.043.043-.216 0-.411z"/><path d="M39.507 58.227c-2.168 2.12-3.447 4.995-4.054 7.935a28 28 0 0 0-.542 4.476l-.065 2.249-.044 1.103c-.021.41-.043.519-.411.756-2.342 1.709-5.247 2.79-8.152 2.963-1.453.086-2.927-.087-4.337-.455-.693-.237-1.409-.432-2.06-.756l-.26-.13s-.064-.022 0-.043l.608-.433c2.493-1.794 4.227-4.389 5.745-6.962s2.927-5.19 4.857-7.438c3.75-4.497 9.864-6.854 15.61-6.681 4.77.454 8.737 3.524 13.485 4.865 1.192.302 2.515.475 3.729.194a32 32 0 0 1 3.555-.345c1.193-.044 2.385 0 3.513.216 1.105.194 2.298.692 2.775 1.513.043-.043-.065.152-.26.368q-.26.291-.586.584c-.412.389-.867.735-1.3 1.102a51 51 0 0 1-2.776 2.033c-2.45 1.665-4.943 3.373-7.588 4.627-2.71 1.103-5.767.324-8.564-.54-1.43-.433-2.84-.93-4.314-1.276-1.453-.346-3.1-.476-4.531.151-2.84 1.124-5.225 3.005-7.48 4.951-.607.541-1.02.909-.932.909.108.021.585-.281 1.084-.714 2.298-1.881 4.704-3.719 7.48-4.757 1.365-.562 2.84-.432 4.27-.065 1.431.346 2.84.865 4.271 1.32 2.797.886 5.963 1.794 8.955.605 2.775-1.298 5.246-2.963 7.74-4.627a52 52 0 0 0 2.818-2.054c.455-.368.91-.714 1.344-1.125.217-.194.434-.41.65-.627.109-.108.196-.238.304-.39.109-.129.174-.475.109-.713-.78-1.319-2.104-1.708-3.296-1.967-1.236-.238-2.472-.281-3.686-.238a35 35 0 0 0-3.642.324c-1.149.26-2.298.108-3.425-.173-4.51-1.254-8.586-4.41-13.594-4.908-6.092-.173-12.293 2.27-16.239 6.962-3.967 4.584-5.594 10.811-10.407 14.357l-1.192.865-.217.152s-.151.108-.021.13l.455.216.759.346c.672.346 1.43.54 2.146.778 1.474.368 3.014.54 4.531.432a15.94 15.94 0 0 0 8.434-3.157c.152-.13.325-.194.434-.454.151-.28.086-.432.13-.648v-1.124l.065-2.228c.043-1.47.195-2.962.477-4.41.563-2.898 1.777-5.709 3.837-7.828.586-.54.954-.994.867-.994s-.542.346-1.04.821z"/><path d="M38.902 71.2c.824-1.297 1.062-2.767 1.43-4.173.347-1.405.694-2.81 1.171-4.15.477-1.342 1.106-2.639 1.93-3.763s1.864-2.14 3.079-2.898c.086-.064.108-.15.065-.194-.044-.043-.109-.065-.195 0-1.366.584-2.559 1.557-3.513 2.703-.954 1.167-1.648 2.53-2.124 3.913-.5 1.406-.803 2.833-1.084 4.281-.304 1.427-.412 2.898-.998 4.173-.043.087-.021.173.044.217.043.021.13 0 .173-.087zm30.98 30.077c-1.626-2.681-2.125-5.838-1.952-8.93s.89-6.14 1.648-9.168c.759-3.027 1.605-6.076 2.038-9.21.434-3.114.434-6.422-.824-9.385-.065-.194-.173-.324-.238-.28-.044.043-.044.194 0 .367.997 2.962.867 6.14.368 9.19-.498 3.07-1.344 6.075-2.103 9.124-.758 3.048-1.452 6.162-1.539 9.34-.108 3.157.542 6.465 2.385 9.082.108.194.238.281.282.237.043-.043 0-.194-.065-.367M40.83 156.693c1.951-2.141 3.339-4.735 4.466-7.395s1.951-5.427 2.667-8.216c.737-2.768 1.344-5.579 2.125-8.325.78-2.724 1.69-5.492 3.599-7.611.13-.151.173-.302.108-.324-.043-.022-.174.043-.282.151-2.168 2.011-3.209 4.865-4.076 7.59-.845 2.746-1.496 5.557-2.211 8.324-.716 2.768-1.496 5.514-2.537 8.173-1.04 2.638-2.298 5.233-4.054 7.482-.108.151-.152.302-.087.346.065.021.174-.044.282-.173zm3.426-2.271c3.339-2.552 5.68-6.119 7.761-9.709 2.06-3.61 3.708-7.437 5.269-11.265 1.56-3.848 2.97-7.74 4.358-11.632.715-1.946 1.409-3.871 2.124-5.816.76-1.903 1.475-3.871 2.58-5.579.152-.238.195-.432.13-.454-.065 0-.195.13-.325.303-1.236 1.708-2.016 3.654-2.862 5.535-.802 1.903-1.539 3.849-2.276 5.773-1.474 3.87-2.884 7.741-4.445 11.568-1.56 3.827-3.165 7.611-5.116 11.243-1.973 3.589-4.206 7.135-7.328 9.817-.195.194-.325.367-.26.41.065.044.238-.064.412-.216zm20.423-49.513c-.477.865-1.453 1.578-2.255 2.27a46 46 0 0 1-2.623 1.99 105 105 0 0 1-5.486 3.675 93 93 0 0 1-5.723 3.308c-1.951 1.017-3.924 1.99-6.027 2.703-.13.043-.217.13-.195.195.021.043.13.065.26.043 2.19-.497 4.25-1.362 6.265-2.335a62 62 0 0 0 5.832-3.265 63 63 0 0 0 5.464-3.827c.867-.692 1.734-1.384 2.558-2.141.78-.778 1.691-1.47 2.168-2.594.065-.173-.13-.346-.151-.26-.066.065-.044.108-.087.195z"/><path d="M60.777 108.563c-1.453 2.336-3.339 4.39-5.355 6.249-2.038 1.86-4.271 3.481-6.613 4.93-2.385 1.384-4.834 2.638-7.414 3.654-2.559 1.038-5.204 1.86-7.87 2.616-.174.044-.304.152-.26.217.021.043.173.064.325.043 2.731-.541 5.441-1.233 8.065-2.206 2.623-.951 5.16-2.205 7.566-3.611 2.385-1.47 4.64-3.156 6.656-5.102 1.995-1.968 3.816-4.13 5.117-6.617.086-.173.086-.324 0-.324-.065 0-.152.087-.239.216zm1.473-4.173c-1.279.216-2.428.411-3.555.606a249 249 0 0 1-3.556.54 49 49 0 0 1-3.556.389c-1.192.087-2.363.152-3.555.022-.087 0-.152.043-.152.108s.043.108.108.13c1.171.367 2.429.411 3.643.411s2.428-.13 3.62-.303a42 42 0 0 0 3.578-.67 40 40 0 0 0 3.49-.995c.087-.022.109-.108.087-.173s-.087-.086-.152-.086zm-1.756-.606-3.469-.475c-1.17-.173-2.298-.346-3.447-.498a85 85 0 0 1-3.404-.627c-1.127-.237-2.254-.497-3.338-.908-.066-.021-.152 0-.174.065 0 .065 0 .13.065.152 1.02.627 2.147 1.016 3.274 1.34s2.298.562 3.447.735c1.17.173 2.32.303 3.49.389a31 31 0 0 0 3.513.065c.087 0 .13-.065.13-.129 0-.065-.065-.109-.13-.13zM.764 95.763c3.187-.952 6.46-1.514 9.734-1.817 3.296-.302 6.613-.346 9.887 0 3.295.282 6.547.865 9.713 1.795 3.208.843 6.244 2.162 9.257 3.568.195.086.39.108.39.043s-.108-.173-.26-.26c-2.905-1.6-5.962-3.07-9.17-4-3.188-1.016-6.505-1.643-9.844-1.924a47.2 47.2 0 0 0-10.038.151c-3.317.39-6.612 1.081-9.756 2.227-.217.087-.347.195-.303.26.043.043.195.043.39 0zm37.072-23.524a33 33 0 0 1 4.683 2.227 34 34 0 0 1 4.293 2.875 29 29 0 0 1 3.773 3.503c1.192 1.254 2.19 2.66 3.165 4.108.065.087.173.13.217.087.043-.043.043-.13 0-.216-.78-1.557-1.713-3.092-2.862-4.433a23.6 23.6 0 0 0-3.816-3.676c-1.388-1.08-2.883-2.054-4.466-2.832-1.583-.8-3.209-1.47-4.922-1.903-.108-.022-.216 0-.216.087 0 .064.065.13.151.172m23.005-1.773c.152 1.124.347 2.227.564 3.33.216 1.124.412 2.205.628 3.308.217 1.08.412 2.162.63 3.286.194 1.103.433 2.206.455 3.287 0 .065.065.13.13.151.065 0 .108-.043.13-.108.216-1.168.065-2.292-.044-3.416a43 43 0 0 0-.542-3.33 56 56 0 0 0-.759-3.287 46 46 0 0 0-.953-3.243.15.15 0 0 0-.174-.086c-.065 0-.087.086-.087.151zm6.894 31.46a131 131 0 0 0-1.648-3.568c-.585-1.189-1.127-2.357-1.69-3.524a509 509 0 0 0-1.714-3.503c-.541-1.124-1.084-2.227-1.69-3.524-.044-.087-.13-.108-.174-.087s-.065.108-.065.173c.325 1.276.802 2.508 1.3 3.72.5 1.21 1.063 2.4 1.627 3.567.585 1.167 1.17 2.335 1.821 3.48a53 53 0 0 0 1.995 3.374c.043.065.13.108.195.065.043-.043.065-.108.021-.173zm3.579-.692c1.019-.735 1.973-1.535 2.927-2.357a51 51 0 0 0 2.731-2.594 45 45 0 0 0 2.515-2.811c.78-.973 1.518-1.99 2.147-3.092a.14.14 0 0 0-.044-.195c-.043-.021-.13 0-.173.044a410 410 0 0 0-2.472 2.789c-.867.908-1.69 1.816-2.536 2.703l-2.602 2.66-2.645 2.637c-.065.065-.065.151 0 .195.043.043.13.043.173 0zm43.838-4.411c-1.475.216-2.906.605-4.337 1.016-1.43.433-2.84.843-4.249 1.254s-2.818.844-4.228 1.189c-1.409.368-2.84.692-4.292.822-.109 0-.174.087-.152.151 0 .065.087.109.152.109 1.496.086 2.991-.13 4.444-.411a49 49 0 0 0 4.315-1.125 137 137 0 0 0 4.206-1.383c1.387-.476 2.775-.973 4.184-1.384.087-.022.152-.108.13-.173 0-.065-.087-.087-.173-.087zm-36.359 4.822c1.344-.714 2.58-1.341 3.816-1.99 1.279-.67 2.536-1.319 3.794-1.989 1.279-.649 2.536-1.297 3.837-1.903 1.28-.605 2.58-1.189 3.925-1.665.086-.043.151-.108.108-.172-.022-.065-.087-.087-.173-.065-1.431.237-2.819.735-4.141 1.275a40 40 0 0 0-3.903 1.838 80 80 0 0 0-3.772 2.097 57 57 0 0 0-3.621 2.336c-.087.065-.108.151-.065.194s.13.044.195 0zm-7.501 6.4c0 1.449.65 2.768 1.344 3.957.716 1.19 1.561 2.292 2.407 3.373a128 128 0 0 0 2.645 3.157c.889 1.038 1.778 2.076 2.558 3.2.065.065.152.108.195.065s.065-.108 0-.173c-.585-1.254-1.409-2.4-2.233-3.503-.845-1.102-1.712-2.162-2.558-3.221-.867-1.06-1.713-2.119-2.472-3.244-.737-1.124-1.452-2.292-1.647-3.611 0-.086-.087-.151-.152-.151s-.109.065-.109.151zm-3.015-1.015c-.564 1.6-.433 3.308-.347 4.929.109 1.644.325 3.265.52 4.887.196 1.622.39 3.222.456 4.843.065 1.6.087 3.244-.499 4.714a.22.22 0 0 0 .044.238.18.18 0 0 0 .173-.108c.846-1.471.954-3.222.954-4.865s-.173-3.287-.368-4.909c-.217-1.6-.412-3.2-.63-4.843-.173-1.6-.39-3.243-.064-4.8 0-.108 0-.195-.087-.216-.065 0-.13.043-.152.13m15.177-43.353c10.277-18.184 26.45-31.85 40.846-46.639 3.881-3.394 8.195-6.335 12.878-8.476 4.748-1.946 9.8-3.33 14.743-4.886l14.916-4.52c2.472-.734 5.009-1.62 7.394-2.507 2.449-.8 4.964-1.449 7.479-2.054l1.279-.303c-.065-.108.152.216.174.605.065.346-.13.822-.109.735-9.279 3.006-18.536 6.184-27.837 8.974-4.64 1.491-9.301 2.789-13.941 4.41-2.298.844-4.553 1.773-6.764 2.876-1.084.562-2.168 1.146-3.187 1.881s-1.886 1.579-2.797 2.4c-3.772 3.59-7.371 7.33-11.014 11.05-1.821 1.859-3.62 3.718-5.485 5.513-1.886 1.816-3.599 3.762-5.333 5.686a528 528 0 0 0-10.19 11.784l-4.987 5.968c-1.648 1.99-3.339 4.022-4.531 6.335-.672 1.233-1.04 2.184-.91 2.076.108-.108.563-.93 1.127-1.946 1.236-2.292 2.905-4.26 4.574-6.249l5.052-5.924a660 660 0 0 1 10.277-11.698c3.403-3.913 7.263-7.373 10.883-11.113 3.664-3.698 7.263-7.417 11.036-10.963 3.36-3.546 8.043-5.232 12.531-6.962 4.553-1.6 9.279-2.897 13.919-4.368 9.366-2.789 18.537-5.946 27.794-8.93.477-.13.607-.562.672-.778a2.3 2.3 0 0 0 .044-.757 2 2 0 0 0-.195-.756c-.065-.238-.499-.692-.933-.541l-1.279.303c-2.536.605-5.051 1.254-7.545 2.075-2.493.93-4.856 1.752-7.371 2.509l-14.916 4.54c-4.965 1.579-9.973 2.94-14.83 4.952-4.769 2.183-9.106 5.189-13.03 8.627-1.973 1.73-3.729 3.632-5.55 5.492l-5.442 5.578-10.883 11.135c-3.686 3.655-7.003 7.698-10.147 11.828-3.122 4.151-6.07 8.454-8.585 12.995-.672 1.232-1.084 2.162-.954 2.075.108-.086.607-.93 1.17-1.946z"/><path d="M127.075 18.292c-.91 1.946-1.452 4.021-1.972 6.075l-.803 3.07c-.303 1.06-.368 2.141-.455 3.2-.173 2.12-.217 4.26-.715 6.271-.282 1.038-.629 1.881-1.54 2.487-.802.691-1.647 1.319-2.471 1.989-3.317 2.551-6.851 5.492-8.217 9.751-.694 2.076-.802 4.325-.499 6.444.087 1.08.39 2.119.629 3.178.108.519.325 1.016.477 1.535.217.562.238.8.694 1.946l1.084-.692c.238-.151.433-.324.65-.497.455-.324.824-.713 1.214-1.081a25 25 0 0 0 2.168-2.4 37 37 0 0 0 3.578-5.34c2.103-3.741 3.62-7.828 4.162-12.087l.152-2.098c.108-3.827.694-7.74 1.214-11.59.607-3.826 1.106-7.74 2.298-11.415.195-.52.39-.865.282-.865-.043 0-.347.324-.52.778-1.323 3.719-1.886 7.59-2.559 11.438-.585 3.87-1.214 7.676-1.365 11.676l-.174 1.99c-.564 4.15-2.081 8.15-4.141 11.805-1.041 1.838-2.19 3.589-3.512 5.21-.672.8-1.366 1.6-2.103 2.336-.39.346-.759.735-1.171 1.038-.195.151-.39.324-.607.454l-.26.151-.347-1.016c-.152-.498-.369-.973-.477-1.492-.217-1.016-.542-2.033-.607-3.07-.304-2.054-.195-4.173.455-6.12 1.258-4 4.618-6.854 7.914-9.448.823-.67 1.669-1.32 2.471-2.033.39-.324.867-.735 1.128-1.254.281-.497.433-1.038.585-1.557.499-2.118.499-4.26.65-6.378.065-1.06.13-2.119.391-3.114l.758-3.092c.499-2.054.998-4.13 1.843-6.054.217-.519.369-.908.282-.886-.065 0-.325.346-.52.8z"/><path d="M112.505 63.46c.152-1.557.347-3.114.607-4.671.26-1.535.586-3.07.976-4.584.412-1.492.91-2.984 1.496-4.41.629-1.406 1.344-2.79 2.276-4.066.065-.086.065-.194 0-.216-.043-.021-.13 0-.195.065-1.106 1.146-1.973 2.53-2.688 3.957-.694 1.448-1.214 2.962-1.648 4.497a34 34 0 0 0-.867 4.692c-.174 1.579-.26 3.157-.195 4.757 0 .108.065.194.13.173.065 0 .108-.087.108-.173zm11.187-24.109c-.325 1.795-1.149 3.481-1.929 5.146a155 155 0 0 1-2.558 4.952c-.868 1.643-1.757 3.286-2.58 4.95-.803 1.687-1.67 3.352-2.103 5.212-.022.13 0 .216.086.238.065 0 .13-.065.174-.173.628-1.709 1.582-3.33 2.45-4.952.888-1.643 1.777-3.265 2.666-4.908.867-1.643 1.713-3.308 2.45-5.038.716-1.708 1.453-3.481 1.583-5.405 0-.13-.043-.217-.109-.217-.065 0-.13.087-.13.195m-7.35-15.566c-3.621-1.73-7.848-1.211-11.534-.087-3.751 1.168-7.241 3.07-10.407 5.384l-.585.454c-.217.173-.325.238-.716.584l-.997.843-.498.432h.715c.434 0 1.019-.021 1.43 0l.716.044 1.431.151c1.93.216 3.903.39 5.876.281 3.946-.173 7.805-1.578 10.992-3.784.217-.151.347-.302.282-.346s-.239 0-.412.13c-3.296 2.01-7.047 3.222-10.884 3.33-1.908.065-3.816-.13-5.745-.368l-1.453-.173-.737-.064h-.043l.173-.152.997-.757c3.1-2.27 6.504-4.173 10.147-5.384 3.599-1.167 7.631-1.794 11.23-.302.239.086.456.108.456.021 0-.064-.152-.173-.347-.26z"/><path d="M92.885 31.049c1.626-.67 3.274-1.32 4.943-1.925 1.67-.605 3.317-1.167 5.008-1.686a84 84 0 0 1 5.095-1.34c1.713-.347 3.447-.65 5.225-.822.109 0 .195-.087.195-.152 0-.064-.086-.108-.195-.108-1.778-.086-3.577.108-5.333.39-1.756.302-3.491.756-5.204 1.254a70 70 0 0 0-5.03 1.816 49 49 0 0 0-4.813 2.313c-.108.065-.151.152-.108.217.043.043.13.043.217 0zm47.741-24.715c-2.06-1.103-4.228-1.946-5.897-3.481-.824-.757-1.518-1.665-1.886-2.703-.369-1.016-.412-2.162-.412-3.308.086-4.54 1.192-9.103 1.691-13.622v-.108l.347.627.715 1.254 1.453 2.508c.954 1.665 1.929 3.308 2.797 5.016 1.019 2.033 2.038 4.13 2.449 6.336.196 1.102.261 2.248.304 3.394.087 1.125-.108 2.379.607 3.438.217.281.499.303.477.238 0-.086-.152-.195-.282-.39-.564-.907-.368-2.161-.39-3.286 0-1.146 0-2.313-.195-3.48-.391-2.336-1.366-4.476-2.363-6.552-.846-1.73-1.8-3.416-2.754-5.081l-1.431-2.508-.694-1.255-.346-.648-.673-1.298-.368.108-.369.109-.043 1.405c-.499 4.649-1.583 9.103-1.583 13.795 0 1.167.087 2.357.521 3.503.433 1.124 1.214 2.097 2.103 2.854 1.799 1.557 4.054 2.335 6.092 3.33.26.13.455.259.477.172 0-.043-.13-.259-.347-.389z"/><path d="M141.926 6.183c-1.388-1.103-2.624-2.379-3.599-3.827a18.5 18.5 0 0 1-2.233-4.714c-.477-1.665-.867-3.395-1.019-5.146-.195-1.751-.195-3.524-.195-5.297 0-.13-.065-.217-.13-.195-.065 0-.109.087-.131.173-.238 1.773-.346 3.568-.238 5.362.065 1.795.434 3.59.954 5.32.52 1.729 1.366 3.372 2.428 4.843a14.2 14.2 0 0 0 3.968 3.654c.108.065.217.065.238 0 .022-.065 0-.152-.087-.217zM85.124 76.13c.542-.151 1.04-.346 1.56-.54a73 73 0 0 0 1.519-.606c.498-.195.953-.39 1.495-.627.412-.173.846-.346 1.518-.627.044 0 .044-.087.044-.151 0-.065-.044-.108-.087-.108-.586 0-1.15.086-1.691.237-.542.152-1.084.325-1.583.563-.52.216-1.019.454-1.496.735s-.954.562-1.41.908c-.02.021-.02.086 0 .151.023.043.088.087.11.065zm11.186-5.644c.39.043.76.087 1.128.108.434.022.759.044 1.106.065.347 0 .672.043 1.105.065.369 0 .738.043 1.128 0 .021 0 .065-.065.087-.13v-.108c-.347-.216-.716-.346-1.106-.454a7 7 0 0 0-1.17-.173c-.391 0-.781 0-1.172.043-.39.065-.78.13-1.149.303-.021 0-.043.065 0 .151 0 .065.044.109.065.109zM73.741 105.71c3.62 2.054 7.502 3.438 11.252 5.146 3.773 1.665 7.502 3.373 11.144 5.254a94 94 0 0 1 10.58 6.249c3.361 2.335 6.591 4.908 9.15 8.108.173.216.368.324.39.259.021-.064-.044-.237-.195-.41-2.407-3.395-5.616-6.119-8.954-8.519-3.361-2.4-6.938-4.519-10.624-6.379-3.686-1.881-7.436-3.568-11.252-5.168-3.772-1.643-7.718-2.94-11.36-4.756-.24-.13-.456-.195-.456-.13s.13.194.325.324zm.609-1.105c2.406.325 4.726.627 7.045.952 2.364.324 4.705.648 7.047.973 2.341.346 4.683.713 7.002 1.124s4.64.865 6.917 1.535c.151.043.281 0 .281-.043 0-.065-.086-.13-.216-.195-2.212-.886-4.532-1.47-6.873-1.967-2.32-.498-4.683-.887-7.025-1.233a192 192 0 0 0-7.068-.865 129 129 0 0 0-7.11-.54c-.152 0-.283.043-.283.108s.109.108.26.13zm-44.838 46.229c-.499-1.427-.78-2.919-.997-4.411-.195-1.492-.304-3.005-.26-4.497s.195-3.006.542-4.454a23 23 0 0 1 1.452-4.26c.044-.086 0-.195-.043-.216-.065 0-.13 0-.174.086-.867 1.276-1.474 2.725-1.908 4.217s-.607 3.048-.65 4.605a23.7 23.7 0 0 0 .39 4.627c.304 1.514.716 3.006 1.41 4.411.043.087.13.13.195.108a.2.2 0 0 0 .043-.194zm10.472-22.617c-1.192 1.038-2.124 2.313-3.035 3.567a36 36 0 0 0-2.45 4.001 27.3 27.3 0 0 0-1.864 4.324c-.477 1.492-.803 3.07-.673 4.649 0 .108.066.173.13.173.066 0 .109-.087.109-.173.108-1.535.542-3.006 1.062-4.433a38 38 0 0 1 1.908-4.173c.694-1.362 1.496-2.681 2.298-4 .824-1.297 1.67-2.616 2.667-3.741.065-.086.087-.173.022-.216-.044-.043-.13-.021-.195.043zm-30.028-1.534c1.561-.649 3.296-.887 4.987-1.125 1.734-.216 3.425-.432 5.138-.67 1.713-.216 3.447-.476 5.138-.843 1.691-.389 3.426-.843 4.922-1.752.108-.064.152-.151.108-.216-.043-.043-.13-.043-.216 0-1.562.692-3.253 1.016-4.944 1.319-1.69.281-3.403.519-5.116.757s-3.426.476-5.139.778c-1.69.346-3.447.692-5.008 1.557-.108.065-.152.151-.108.195.043.043.13.065.217 0zm57.931-22.272c-.672-.173-1.28-.649-1.8-1.146a15 15 0 0 1-1.496-1.622 28 28 0 0 1-1.3-1.816 64 64 0 0 1-1.215-1.903c-.021-.043-.108-.043-.173 0-.044.022-.087.087-.065.13.217.735.498 1.47.867 2.14.369.692.78 1.341 1.28 1.946.498.606 1.04 1.168 1.69 1.644.629.454 1.366.908 2.212.886.065 0 .086-.065.086-.13a.14.14 0 0 0-.086-.129m1.799 3.331a13 13 0 0 0-.043 2.249c.043.757.173 1.492.347 2.227.173.735.433 1.47.737 2.162a7.4 7.4 0 0 0 1.257 1.903.105.105 0 0 0 .152 0c.043-.043.065-.086.043-.13a23 23 0 0 1-.823-2.032 37 37 0 0 1-.607-2.076 38 38 0 0 1-.456-2.14c-.108-.649-.217-1.319-.368-2.184 0-.044-.065-.087-.13-.087-.066 0-.109.043-.109.087zm-2.341-1.687c-.412.389-.78.822-1.128 1.276s-.65.929-.932 1.427c-.282.497-.542.994-.759 1.513s-.412 1.06-.52 1.622c0 .043.043.086.108.108h.13c.326-.476.607-.951.89-1.427.303-.519.563-.973.823-1.449.26-.475.52-.929.802-1.448.26-.498.542-.973.78-1.492 0-.044 0-.087-.064-.13-.044-.043-.109-.043-.13 0m6.157-3.438a28 28 0 0 0 1.648-1.124q.78-.583 1.561-1.233c.499-.41.997-.865 1.474-1.319s.954-.93 1.366-1.427c.022-.043 0-.108-.043-.15-.044-.044-.087-.066-.13-.044-.586.324-1.128.713-1.648 1.103-.52.389-1.04.8-1.54 1.232-.498.432-.997.865-1.474 1.319s-.954.93-1.387 1.427c-.022.043 0 .108.043.151.044.044.087.065.13.044zm-1.821 1.621c1.04-.129 1.908-.238 2.754-.346.954-.086 1.843-.194 2.753-.281l2.754-.194c.845-.044 1.712-.108 2.775-.173.065 0 .108-.065.108-.13s-.043-.108-.087-.108a15.3 15.3 0 0 0-2.796-.26c-.933 0-1.887 0-2.819.108a25 25 0 0 0-2.797.411c-.91.195-1.82.411-2.71.735-.065.022-.087.087-.065.152s.065.086.13.086M31.812-1.6C29.947.757 26.673 2.01 23.53 2.53c-1.583.238-3.252.26-4.705-.217-1.453-.432-2.45-1.556-2.428-2.919-.109-1.362.78-2.53 2.125-3.113s2.926-.757 4.487-.757c3.079.087 6.396.67 8.738 2.53.151.13.325.173.368.13.044-.044-.022-.173-.152-.303-2.32-2.14-5.723-2.897-8.932-3.049-1.626-.043-3.317.087-4.9.757-1.604.605-2.84 2.249-2.667 3.849-.065 1.6 1.301 3.178 3.014 3.61 1.691.52 3.469.433 5.16.152 3.295-.627 6.634-2.054 8.39-4.67.109-.173.13-.325.044-.346-.065 0-.195.086-.304.216zm52.682-11.763c2.212 2.206 2.862 5.492 2.689 8.584-.13 1.557-.52 3.157-1.453 4.498-.91 1.362-2.58 2.205-4.293 2.01-1.734-.064-2.97-1.124-3.273-2.55-.347-1.428-.087-3.006.368-4.52.998-3.005 2.689-6.119 5.507-8.043.195-.13.303-.26.26-.325-.043-.043-.217 0-.39.087-3.122 1.838-5.008 4.995-6.157 8.108-.52 1.579-.868 3.287-.499 4.93.282 1.665 1.951 3.092 3.99 3.135 1.972.26 4.249-.886 5.224-2.486 1.063-1.557 1.388-3.265 1.475-4.887.065-3.222-.76-6.573-3.274-8.735-.174-.13-.347-.195-.369-.108-.022.065.043.194.174.324zM66.152-7.115C68.06-4.8 68.385-1.579 67.93 1.34c-.26 1.47-.78 2.983-1.8 4.173-.997 1.21-2.666 1.859-4.27 1.535-1.648-.217-2.71-1.34-2.884-2.725-.195-1.384.195-2.897.758-4.302 1.236-2.79 3.122-5.622 6.006-7.2.195-.109.325-.238.26-.282-.043-.043-.195-.021-.39.044-3.166 1.47-5.268 4.324-6.656 7.221-.65 1.47-1.127 3.07-.932 4.67.108 1.622 1.604 3.157 3.555 3.374 1.865.432 4.163-.476 5.247-1.903 1.15-1.405 1.626-3.005 1.865-4.562.368-3.07-.109-6.379-2.342-8.67-.152-.152-.303-.217-.347-.152s.022.195.13.324z"/><path d="M66.153-8.563c-.39 1.06-.715 2.14-1.062 3.221-.325 1.081-.65 2.163-.954 3.244a145 145 0 0 0-.89 3.265c-.281 1.102-.541 2.183-.736 3.286 0 .065.043.13.13.151.065 0 .152-.043.173-.086.477-1.06.867-2.14 1.236-3.222a46 46 0 0 0 .976-3.243 60 60 0 0 0 .802-3.265c.238-1.103.455-2.184.607-3.286 0-.065-.043-.13-.13-.152a.16.16 0 0 0-.152.108zM47.247-2.66c1.605 2.378 1.605 5.491.91 8.237-.39 1.384-1.018 2.768-2.102 3.806-1.062 1.06-2.71 1.535-4.206 1.06-1.561-.347-2.472-1.514-2.515-2.855-.065-1.34.455-2.746 1.127-4.043C41.892.993 43.974-1.536 46.88-2.79c.195-.087.325-.195.282-.26-.044-.043-.196-.043-.369 0-3.187 1.103-5.464 3.654-7.068 6.292-.759 1.362-1.366 2.832-1.322 4.39-.044 1.556 1.257 3.178 3.1 3.545 1.756.584 4.054-.064 5.225-1.34 1.236-1.233 1.843-2.725 2.211-4.195.63-2.919.477-6.119-1.452-8.519-.13-.151-.282-.238-.325-.173s0 .195.086.324z"/><path d="M47.378-4.022a60 60 0 0 0-1.322 2.983c-.434.995-.824 2.011-1.214 3.006-.39 1.016-.78 2.01-1.15 3.048a40 40 0 0 0-.997 3.092c0 .065.022.13.109.152.065 0 .151 0 .173-.065.564-.973 1.04-1.968 1.496-2.962a44 44 0 0 0 1.236-3.006c.39-1.016.737-2.032 1.062-3.048s.629-2.055.867-3.092a.16.16 0 0 0-.108-.152.2.2 0 0 0-.173.087zM17.306 55.159c.195 1.816-2.341 5.492-5.441 6.573-3.73 1.297-8.716-.54-11.47 2.573 1.345-9.925 11.773-14.79 16.933-9.146z"/></g></svg>